<?xml version="1.0" encoding="UTF-8" standalone="no"?>
<!-- Created with Inkscape (http://www.inkscape.org/) -->

<svg
   xmlns:dc="http://purl.org/dc/elements/1.1/"
   xmlns:cc="http://creativecommons.org/ns#"
   xmlns:rdf="http://www.w3.org/1999/02/22-rdf-syntax-ns#"
   xmlns:svg="http://www.w3.org/2000/svg"
   xmlns="http://www.w3.org/2000/svg"
   xmlns:sodipodi="http://sodipodi.sourceforge.net/DTD/sodipodi-0.dtd"
   xmlns:inkscape="http://www.inkscape.org/namespaces/inkscape"
   width="90.678619mm"
   height="104.11626mm"
   viewBox="0 0 321.30219 368.91587"
   id="svg2"
   version="1.1"
   inkscape:version="0.91 r13725"
   sodipodi:docname="anonymous-face-mask.svg"
   inkscape:export-filename="C:\Users\fowlerd3\OneDrive\CovPhD\Graphics\anonymous-face-mask.png"
   inkscape:export-xdpi="44.888283"
   inkscape:export-ydpi="44.888283">
  <title
     id="title4526">Anonymous Face Mask</title>
  <defs
     id="defs4" />
  <sodipodi:namedview
     id="base"
     pagecolor="#ffffff"
     bordercolor="#666666"
     borderopacity="1.0"
     inkscape:pageopacity="0.0"
     inkscape:pageshadow="2"
     inkscape:zoom="0.7"
     inkscape:cx="439.91957"
     inkscape:cy="28.153866"
     inkscape:document-units="px"
     inkscape:current-layer="layer1"
     showgrid="false"
     fit-margin-top="2"
     fit-margin-right="2"
     fit-margin-left="2"
     fit-margin-bottom="2"
     inkscape:window-width="1377"
     inkscape:window-height="980"
     inkscape:window-x="-5"
     inkscape:window-y="0"
     inkscape:window-maximized="0" />
  <metadata
     id="metadata7">
    <rdf:RDF>
      <cc:Work
         rdf:about="">
        <dc:format>image/svg+xml</dc:format>
        <dc:type
           rdf:resource="http://purl.org/dc/dcmitype/StillImage" />
        <dc:title>Anonymous Face Mask</dc:title>
        <dc:date>2016-12-06</dc:date>
        <dc:rights>
          <cc:Agent>
            <dc:title>Public domain</dc:title>
          </cc:Agent>
        </dc:rights>
        <dc:publisher>
          <cc:Agent>
            <dc:title>https://openclipart.org/</dc:title>
          </cc:Agent>
        </dc:publisher>
        <dc:source>https://openclipart.org/detail/176919/anonyous-face-mask</dc:source>
        <dc:language>en-GB</dc:language>
        <dc:subject>
          <rdf:Bag>
            <rdf:li>anonymous</rdf:li>
            <rdf:li>face</rdf:li>
            <rdf:li>mask</rdf:li>
            <rdf:li>protest</rdf:li>
            <rdf:li>hacktivism</rdf:li>
            <rdf:li>hacking</rdf:li>
            <rdf:li>revolt</rdf:li>
          </rdf:Bag>
        </dc:subject>
        <dc:contributor>
          <cc:Agent>
            <dc:title>chatard</dc:title>
          </cc:Agent>
        </dc:contributor>
        <dc:description>A face mask used by protestors to protect their identity, hence anonymous.</dc:description>
      </cc:Work>
    </rdf:RDF>
  </metadata>
  <g
     inkscape:label="Layer 1"
     inkscape:groupmode="layer"
     id="layer1"
     transform="translate(-247.86287,-399.11648)">
    <g
       id="g4580"
       transform="matrix(1.0128185,0,0,1.0128185,-3.2273678,-5.1742738)">
      <rect
         y="403.65588"
         x="251.77365"
         height="346.79276"
         width="305.91748"
         id="rect4511"
         style="fill:#ffffff;fill-opacity:1;stroke:none;stroke-width:2.31177616;stroke-linecap:round;stroke-linejoin:round;stroke-miterlimit:4;stroke-dasharray:none;stroke-opacity:1" />
      <flowRoot
         transform="matrix(0.99983976,0.01790103,-0.01790103,0.99983976,-176.58878,331.19089)"
         style="font-size:40px;line-height:125%;font-family:Sans;letter-spacing:0px;word-spacing:0px;fill:#000000"
         xml:space="preserve"
         id="flowRoot5478"><flowRegion
           id="flowRegion5480"><rect
             height="56.569"
             x="-763.67999"
             width="395.98001"
             y="-87.494003"
             id="rect5482" /></flowRegion><flowPara
           id="flowPara5484" /></flowRoot>      <path
         style="fill:none"
         inkscape:connector-curvature="0"
         id="path3868"
         d="m 409.11095,760.68612 c -6.45921,-0.50056 -16.77876,-3.64414 -22.86176,-6.96417 -7.55489,-4.12328 -29.0202,-21.84856 -40.42056,-33.37714 -5.79223,-5.8576 -13.8734,-13.96656 -17.95877,-18.01989 -17.86455,-17.72609 -27.20869,-29.58083 -34.46175,-43.71876 -4.99693,-9.7407 -6.94024,-15.64429 -11.38681,-34.59453 -4.80278,-20.46825 -7.26988,-37.96999 -7.73792,-54.8933 -0.22559,-8.17329 -0.86786,-27.60621 -1.42615,-43.18458 -1.03947,-29.00111 -0.54159,-39.67557 2.6914,-57.70628 2.53122,-14.11704 8.67198,-29.31867 14.27761,-35.34483 6.0684,-6.52313 31.84775,-15.047 58.23096,-19.25402 12.98561,-2.07064 77.96466,-4.27156 96.32014,-3.26252 30.4746,1.67533 60.19624,7.38552 78.47071,15.07637 9.62489,4.05057 18.79613,11.03307 22.08935,16.81823 7.62965,13.40344 11.14779,32.52833 15.50195,84.2674 3.21176,38.16546 1.70375,68.5889 -4.52634,91.3194 -7.61015,27.76602 -16.02129,47.27119 -26.29055,60.96986 -12.66826,16.89815 -67.01894,65.88681 -82.38463,74.25858 -11.54011,6.28679 -23.74692,8.72323 -38.12672,7.60849 z m 6.81901,-168.42196 c -0.26868,-1.17696 -2.28081,-0.93051 -2.73696,0.33525 -0.25187,0.69861 0.20156,0.97753 1.26336,0.77717 0.91088,-0.17188 1.57405,-0.67248 1.4736,-1.11242 z m 81.64899,-51.06494 c 1.12546,-0.4088 1.39814,-0.83972 0.74254,-1.17347 -2.01694,-1.02703 -16.45284,-1.98396 -21.83097,-1.44713 -5.58716,0.55777 -7.04541,1.07801 -5.83676,2.08234 1.65474,1.37511 23.42346,1.81028 26.9251,0.53827 z m -137.59043,-2.4302 c 2.36089,-1.33 -2.47402,-2.18936 -13.20271,-2.34679 -7.30667,-0.10721 -12.32044,0.20649 -15.10575,0.94493 -4.56275,1.20993 -5.2951,2.19351 -2.04861,2.75111 3.11367,0.53482 29.05933,-0.61811 30.35725,-1.34921 z m 0.68334,-33.39037 c 0.32024,-0.46996 0.33167,-1.38997 0.0256,-2.04453 -0.43514,-0.9301 -0.96056,-0.99227 -2.40513,-0.28451 -1.01654,0.49804 -1.83717,1.43512 -1.82356,2.08233 0.0282,1.34398 3.32364,1.53741 4.2032,0.24671 z m 69.42507,-3.03386 c 0.90646,-0.90591 1.43547,-1.82374 1.17558,-2.0397 -0.8868,-0.73695 -6.30542,0.74308 -6.28496,1.71666 0.0518,2.46382 2.79383,2.63714 5.10938,0.32299 z m -34.85343,-5.27074 c -0.65867,-0.65991 -1.62797,-1.19081 -2.15407,-1.17975 -0.5261,0.0111 -0.18449,0.72947 0.75917,1.59642 1.95451,1.79559 3.22443,1.41621 1.3949,-0.41671 z" />
      <path
         sodipodi:nodetypes="ccscsccccccccccccscsssccsssssccccsssssscccscccscccccccscccscccccscccsccccsscsccccccccsccscsssccsscssssccccscccssscccccssccccscccccccsccccccccssscscscccscscccscccscsscccccccccccccccccscccssccsccccssccssccccsccsccccssscssscccccscsscccssccccssscsccccscscssccccsccscsccc"
         style="fill:#000000"
         inkscape:connector-curvature="0"
         id="path3072"
         d="m 394.91329,745.17772 c -12.00169,-3.10216 -17.45004,-6.12482 -31.83121,-17.66064 -13.314,-10.68058 -16.07039,-13.23878 -37.5244,-34.83895 -17.94305,-18.06524 -28.06588,-29.88351 -31.66835,-36.97628 -1.95794,-3.85431 -0.68873,-4.18335 3.49368,-0.90583 1.92021,1.50474 3.48509,2.44065 3.47749,2.0796 -0.008,-0.36095 -2.62224,-4.87884 -5.81029,-10.03946 -6.24516,-10.10989 -9.54063,-18.40429 -7.90151,-19.88709 0.67686,-0.61237 1.60303,-0.20187 3.12169,1.38349 7.64425,7.9803 12.23638,13.24868 13.90211,15.94877 1.05232,1.70566 2.57902,3.55945 3.39267,4.11942 0.81366,0.56001 1.48614,1.3392 1.49439,1.7315 0.008,0.39229 1.44258,2.39751 3.18732,4.45609 1.74484,2.05856 4.63284,5.52044 6.41778,7.69319 1.78505,2.17274 3.47781,4.12639 3.76178,4.34145 1.02421,0.77556 14.93639,17.13664 16.0936,18.92554 0.65171,1.008 3.80706,4.75017 7.01199,8.3159 20.89647,23.24991 30.10704,31.35321 39.87058,35.07816 7.05209,2.69049 12.51664,3.52584 12.45844,1.90424 -0.0622,-1.72119 -2.72453,-14.73228 -4.64793,-22.71313 -2.4887,-10.32633 -2.00028,-21.90882 1.29647,-30.73809 2.41872,-6.47787 2.44098,-6.72371 0.85616,-9.46755 -2.01447,-3.48764 -6.1503,-5.62598 -12.836,-6.63674 -10.00246,-1.51206 -13.12081,-2.33075 -17.3997,-4.56831 -3.1925,-1.66933 -4.0619,-2.50527 -3.31147,-3.18422 1.09569,-0.9913 12.77699,0.0402 20.20873,1.78466 2.88244,0.67658 6.31774,0.64392 13.89944,-0.13214 7.22261,-0.73932 13.61305,-0.83813 22.59674,-0.34939 6.88948,0.37479 15.02747,0.62137 18.08442,0.54801 7.56215,-0.18154 31.40872,-5.6461 38.81148,-8.89376 10.19176,-4.47149 21.84976,-15.81732 28.42202,-27.66196 2.1835,-3.93497 2.47454,-6.30505 0.48157,-3.92128 -7.13089,8.52893 -16.34525,17.67553 -18.72467,18.58719 -2.32261,0.88986 -5.82177,0.97968 -18.28547,0.46914 -20.9984,-0.86006 -22.36788,-0.79999 -22.33046,0.97988 0.0825,3.92325 -2.48703,4.09808 -44.88626,3.05376 -28.17494,-0.69396 -31.99971,-1.16946 -32.05894,-3.98565 -0.0166,-0.78948 -2.71575,-1.1509 -10.41149,-1.39416 -14.16558,-0.44771 -28.95424,-2.00919 -32.25156,-3.40539 -3.80929,-1.61297 -8.13503,-6.36442 -15.6104,-17.14658 -3.53486,-5.09883 -8.12353,-10.96976 -10.19685,-13.04723 -2.07341,-2.07714 -4.02705,-4.58502 -4.34135,-5.57305 -0.53987,-1.69748 -1.36345,-2.10299 -3.69706,-1.82043 -1.18119,0.14302 -3.60357,-2.04577 -4.46668,-4.03592 -0.83533,-1.92595 0.14961,-1.77072 4.49559,0.70838 3.00829,1.71613 4.72709,2.10034 8.82966,1.97411 13.30787,-0.40966 28.11551,-3.5425 42.18168,-8.92413 8.50736,-3.25488 17.14296,-4.9516 18.68432,-3.67096 1.18864,0.9878 1.44029,8.4805 0.33776,10.05891 -0.61839,0.88521 -1.14213,0.67789 -2.43901,-0.9656 -0.9084,-1.15106 -1.67061,-2.99777 -1.69387,-4.1037 -0.0603,-2.86953 -1.36464,-3.15604 -1.93439,-0.42484 -0.57999,2.78107 -5.79218,5.03481 -11.94277,5.16416 -2.18595,0.046 -6.48106,0.99468 -9.54449,2.10831 -3.06371,1.11362 -7.74816,2.55703 -10.41018,3.2077 -2.66186,0.65064 -5.02879,1.63583 -5.25998,2.18924 -0.60072,1.43862 7.26483,13.37975 11.33634,17.21075 l 3.43613,3.23278 15.24499,-0.0528 c 8.99993,-0.0312 16.75223,-0.43831 18.92413,-0.9938 4.44767,-1.13776 9.62171,-5.6201 12.29176,-10.64922 1.91941,-3.6149 1.92239,-3.70249 0.15225,-4.50405 -3.03035,-1.37231 -9.9532,-7.54282 -9.59536,-8.55253 0.526,-1.48334 7.04841,-1.7372 11.26455,-0.43844 2.09958,0.6467 5.69113,1.29225 7.98132,1.43457 2.29019,0.14231 7.06781,1.37107 10.61662,2.73064 l 6.45294,2.47186 6.07757,-1.59158 c 3.34268,-0.87531 8.36372,-1.95905 11.15826,-2.40828 2.79417,-0.44919 8.78028,-1.48428 13.30235,-2.30034 l 8.22209,-1.48364 1.7408,1.78747 c 1.19487,1.22686 1.48995,2.1947 0.94096,3.08601 -0.90464,1.46882 -8.89692,4.32572 -14.11402,5.04514 -2.6569,0.3664 -3.45785,0.84246 -3.43265,2.04022 0.0881,4.18851 9.3588,14.6016 14.71505,16.52804 5.05986,1.82007 20.65333,2.38857 27.51043,1.00299 4.92326,-0.9948 5.66433,-1.48459 12.79752,-8.45842 8.42475,-8.23704 10.00785,-10.74906 7.88006,-12.50389 -0.75144,-0.61956 -8.51745,-4.02868 -17.25813,-7.57582 -8.74032,-3.54714 -16.70143,-7.19435 -17.69188,-8.10497 -2.65684,-2.4431 -4.2995,-2.05363 -4.2517,1.00809 0.0232,1.43619 -0.35198,3.16207 -0.83198,3.83524 -0.64687,0.90729 -0.93493,0.34142 -1.11311,-2.18687 -0.13227,-1.87594 -0.28725,-3.98596 -0.34451,-4.68898 -0.1332,-1.63474 6.37533,-3.79615 9.56926,-3.17772 1.28973,0.24972 6.76218,2.26265 12.1612,4.47319 5.39885,2.21056 15.69212,5.78324 22.87394,7.93974 15.30193,4.59395 21.47213,5.00921 28.07589,1.88959 2.14511,-1.01337 3.90425,-1.6502 3.90919,-1.4153 0.005,0.23492 -1.61399,2.58067 -3.59763,5.21284 -3.12603,4.14808 -3.59429,5.3723 -3.51405,9.18747 0.11131,5.29333 -0.86123,8.05517 -5.48723,15.58252 -8.0572,13.11042 -19.77507,28.09178 -33.57936,42.92972 -3.56531,3.83246 -7.82704,8.75736 -9.47081,10.94434 -4.05488,5.39581 -14.46696,15.27867 -16.13356,15.31372 -4.07117,0.0856 6.51917,-19.33196 17.69195,-32.43797 2.91783,-3.42276 5.29885,-6.62541 5.29129,-7.11707 -0.008,-0.51948 -3.38504,0.29774 -8.06359,1.95131 -4.4274,1.56483 -8.85034,2.87398 -9.82887,2.90918 -0.97844,0.0352 -4.33958,1.20983 -7.46907,2.61024 -3.91795,1.75321 -8.24675,2.88042 -13.89934,3.61938 -4.51508,0.59027 -9.71939,1.76782 -11.56444,2.61671 -3.50733,1.61332 -7.16168,5.16954 -7.12459,6.9333 0.0119,0.56637 -0.49628,1.19153 -1.1293,1.38929 -0.91157,0.28474 -0.86967,1.17536 0.20164,4.28233 3.63774,10.55052 3.76773,15.66519 0.63108,24.83509 -2.0956,6.12659 -7.12815,31.03433 -6.3938,31.64419 1.09507,0.91003 11.3605,-1.69367 17.63497,-4.47297 8.98913,-3.98164 16.41674,-10.04474 22.77933,-18.59449 7.05436,-9.47974 18.86587,-23.55162 32.97209,-39.28164 11.46462,-12.78423 15.63417,-17.86152 23.20821,-28.25719 6.53325,-8.96726 9.14013,-11.64066 14.5242,-14.89248 4.50008,-2.71787 5.1661,-2.90685 6.45834,-1.83298 1.24751,1.03661 1.29587,1.83324 0.3604,5.93517 -0.59415,2.60583 -2.22696,6.93205 -3.62835,9.61346 -2.14935,4.11323 -2.37008,5.151 -1.41105,6.63446 0.98163,1.51828 0.5861,2.78934 -2.89518,9.30387 -5.07693,9.50085 -10.47447,16.14875 -23.95131,29.50093 -10.20932,10.11514 -42.2244,38.0954 -54.19938,47.36919 -14.83398,11.4879 -35.66401,16.3867 -51.86751,12.1992 z M 426.3843,632.00951 c -0.0125,-0.59431 -0.91534,-1.75083 -2.00628,-2.56996 -1.09095,-0.81921 -4.31702,-4.24023 -7.1691,-7.60241 -6.58021,-7.7569 -7.66,-8.62779 -10.25683,-8.27419 -1.21473,0.16552 -6.40601,4.07464 -12.13814,9.13978 -5.50866,4.86795 -9.94055,8.88058 -9.84804,8.9164 1.75816,0.68326 20.74204,1.71509 29.62706,1.61021 9.3409,-0.11011 11.8092,-0.36551 11.79124,-1.21984 z m -75.82262,51.21648 c -1.79122,-1.02078 -3.90587,-1.84233 -4.69925,-1.82564 -3.64586,0.0767 -16.0709,-12.82164 -24.66341,-25.60282 -3.15927,-4.69956 -12.35509,-16.29316 -14.735,-18.57797 -0.67604,-0.64886 -2.21965,-2.78649 -3.43031,-4.75028 -1.21075,-1.96379 -3.37803,-4.81167 -4.81638,-6.32862 -5.1079,-5.38726 -14.86331,-24.89987 -14.02311,-28.04891 0.2737,-1.02602 1.80457,-2.74276 3.40191,-3.81495 l 2.90424,-1.94936 1.69854,1.87186 c 0.93429,1.02956 5.46421,7.94577 10.06683,15.36955 13.45785,21.70725 18.91016,27.51775 31.93453,34.03302 6.56679,3.28486 6.0296,4.18333 -1.13644,1.90095 -5.21517,-1.66104 -6.60731,-1.45261 -4.95702,0.74215 0.55779,0.74176 4.69526,6.76204 9.19443,13.37856 4.49915,6.61634 9.4448,13.56538 10.99052,15.44176 3.58745,4.35572 6.15181,8.4875 5.80063,9.34684 -0.15063,0.36859 -1.7394,-0.16504 -3.53061,-1.18585 z M 526.89183,534.43514 c -5.03147,-1.60751 -12.19849,-1.88318 -20.55113,-0.79046 l -5.54564,0.72545 4.58399,-2.38174 c 4.29859,-2.2335 4.5676,-2.56611 4.32032,-5.34257 -0.63114,-7.08782 -8.66999,-14.38542 -20.2737,-18.40442 l -6.97803,-2.4167 -9.64241,0.97743 c -15.55771,1.57707 -26.30323,4.92532 -32.38939,10.09291 -2.87709,2.44278 -3.02212,3.41305 -0.99473,6.65585 1.8655,2.98395 0.80033,2.99719 -3.10096,0.0384 -2.7204,-2.06313 -2.95542,-2.54695 -2.02906,-4.17696 2.46701,-4.34086 7.29779,-6.97028 20.20684,-10.99811 18.92004,-5.9038 31.44421,-6.42671 43.25725,-1.80601 6.69981,2.62059 8.25309,3.90887 14.65364,12.15299 l 3.9909,5.14036 5.31307,-0.20624 c 3.68516,-0.14312 5.8644,-0.65804 7.11263,-1.6807 0.98965,-0.81093 1.8064,-1.14385 1.8149,-0.73976 0.008,0.40405 -0.80882,1.20373 -1.81626,1.77707 -1.87439,1.06668 -2.50767,4.25799 -0.83801,4.22287 0.50955,-0.0107 0.93329,0.3082 0.94172,0.70869 0.008,0.40049 -0.71741,0.59189 -1.61298,0.42534 -0.89557,-0.16656 -2.24596,0.0742 -3.0009,0.53517 -1.38549,0.84591 -1.05343,1.15375 6.56036,6.08097 1.8792,1.21608 1.4863,1.15796 -3.98297,-0.58947 z m -215.22637,-2.71209 c -3.58534,-0.81305 -9.54486,-1.61058 -13.2444,-1.77229 -4.88397,-0.21354 -6.73201,-0.60001 -6.74908,-1.41137 -0.0129,-0.61449 -0.75419,-1.15695 -1.64728,-1.20552 -0.89308,-0.0485 -2.21995,-0.11246 -2.94868,-0.14201 -0.72873,-0.0295 -1.92513,-1.2627 -2.65873,-2.74037 -1.31051,-2.63973 -1.29638,-2.67683 0.81563,-2.12664 8.33483,2.1714 13.09101,0.73725 16.85385,-5.08202 3.25306,-5.03149 9.34347,-9.99244 15.38573,-12.53152 5.13358,-2.15773 5.93228,-2.26029 16.1756,-2.07665 15.80537,0.2833 18.65507,1.68215 3.85998,1.89441 -13.94066,0.19995 -19.51942,1.81816 -25.90402,7.51381 -4.90711,4.37723 -8.81217,11.42317 -7.37742,13.31152 1.41263,1.85851 6.51323,3.82658 13.4385,5.18538 3.32709,0.65277 6.45217,1.50499 6.9446,1.89384 1.58891,1.25475 -6.15263,0.83013 -12.944,-0.70995 z m 180.90568,-5.69677 c -5.73477,-2.65326 -21.70516,-3.08836 -31.36192,-0.85423 -6.15377,1.42375 -6.36659,1.41794 -13.1154,-0.35431 -5.43435,-1.42704 -6.86706,-2.12977 -6.89338,-3.38095 -0.0455,-2.16504 9.21233,-6.26806 19.69661,-8.72888 7.30468,-1.7148 9.02873,-1.84316 16.75931,-1.24749 4.73944,0.36518 10.54132,1.35317 12.89276,2.19555 9.75779,3.49568 15.34278,8.34325 12.98064,11.26708 -1.54925,1.91783 -7.8317,2.55059 -10.95861,1.1038 z m -122.17079,0.093 c -0.006,-0.27873 0.86566,-1.62101 1.9367,-2.98282 1.21148,-1.54036 1.88539,-3.57561 1.78345,-5.3859 l -0.16406,-2.90985 1.84971,1.85856 c 3.32296,3.33886 2.21333,6.32027 -3.33039,8.94813 -1.13561,0.53829 -2.06954,0.75067 -2.07541,0.47193 z m -60.27025,-1.29736 c -5.00179,-2.04303 -4.70955,-3.96818 1.19333,-7.86025 6.98575,-4.60611 12.47571,-6.39696 21.69252,-7.0756 6.12445,-0.45098 9.5957,-0.24581 15.47572,0.91464 8.75032,1.72695 16.99802,4.81483 20.03235,7.50036 1.86876,1.6537 1.95506,2.00713 0.75533,3.09257 -2.05413,1.85844 -11.54285,3.5994 -13.66507,2.50714 -3.317,-1.70723 -12.99204,-2.55449 -22.99212,-2.01338 -8.03191,0.4346 -10.79955,0.91126 -13.89268,2.39273 -4.64312,2.22352 -4.50299,2.21472 -8.59855,0.54182 z m 113.57404,-20.17111 c -0.073,-3.46924 1.65756,-5.78913 6.80118,-9.11755 1.02849,-0.66559 2.99232,-2.55951 4.3641,-4.20869 2.36521,-2.84353 2.40047,-3.02214 0.68292,-3.45628 -2.31702,-0.58561 -3.30634,-4.37281 -1.59339,-6.09982 1.98396,-2.00027 1.53005,-2.49627 -1.73956,-1.90107 -1.86566,0.33962 -3.64303,0.15373 -4.69899,-0.4914 -1.63515,-0.99906 -1.63472,-1.17259 0.0133,-4.66662 2.55522,-5.41724 9.64835,-12.68254 15.60051,-15.98007 6.5147,-3.60891 15.3674,-6.74825 25.70353,-9.11481 9.89614,-2.26591 28.01974,-2.76367 36.03784,-0.98986 7.02038,1.55308 14.79862,6.09 19.04143,11.10668 6.13588,7.25459 9.81164,22.89148 5.90578,25.12201 -1.05539,0.60255 -2.54538,0.1556 -5.79579,-1.73862 l -4.37527,-2.54963 -6.3714,1.18062 c -3.50426,0.64932 -8.82835,1.05434 -11.83133,0.89998 -7.36047,-0.37831 -18.56298,1.02249 -28.19464,3.52551 -8.40671,2.18469 -10.65014,3.07942 -15.05771,6.00584 -4.67446,3.10339 -10.18379,4.6299 -17.29553,4.79206 -8.26509,0.18842 -10.77976,1.27871 -13.10064,5.6792 -2.89761,5.49509 -4.01223,6.04007 -4.09713,2.00316 z M 381.769,503.1299 c -1.40513,-1.23764 -4.14844,-2.84327 -6.09627,-3.56813 -1.94783,-0.72486 -5.38816,-2.02381 -7.64521,-2.88658 -2.25695,-0.86277 -6.27035,-3.30122 -8.91868,-5.41876 -5.93701,-4.74716 -8.16447,-5.72757 -14.36888,-6.32449 -2.68291,-0.25808 -9.17662,-1.64604 -14.4305,-3.08427 -15.25421,-4.17589 -26.22854,-3.86305 -39.03721,1.11267 l -5.42151,2.10607 -1.94452,-1.61585 c -2.89574,-2.4065 -2.96489,-11.7325 -0.12989,-17.54286 2.2779,-4.66844 7.59407,-9.52727 12.49612,-11.42109 7.17778,-2.77289 22.81493,-5.79506 28.09896,-5.43052 14.5378,1.00299 23.73969,3.67031 42.50332,12.32041 13.97467,6.44209 16.08139,8.605 11.21089,11.50926 -2.82391,1.68406 -3.04928,5.55912 -0.41208,7.08598 2.02068,1.16994 2.30269,5.52357 0.46548,7.18576 -1.82247,1.64893 -1.28506,3.06073 2.54101,6.6748 3.17315,2.99736 5.88872,7.83228 5.94667,10.58797 0.0341,1.62026 -2.23838,1.01662 -4.85769,-1.29032 z" />
      <path
         transform="matrix(0.99975866,-0.02196872,0.02010351,0.9997979,0,0)"
         sodipodi:open="true"
         d="m 256.69951,433.04988 a 447.02338,353.80356 0 0 1 277.87642,8.05443"
         sodipodi:end="5.0652571"
         sodipodi:start="4.4327337"
         sodipodi:ry="353.80356"
         sodipodi:rx="447.02338"
         sodipodi:cy="773.1084"
         sodipodi:cx="380.08884"
         sodipodi:type="arc"
         id="path4441"
         style="fill:none;fill-opacity:1;stroke:#000000;stroke-width:9.05313778;stroke-linecap:round;stroke-linejoin:round;stroke-miterlimit:4;stroke-dasharray:none;stroke-opacity:1" />
      <path
         inkscape:transform-center-y="15.295655"
         inkscape:transform-center-x="0.12877239"
         transform="matrix(-0.0740337,0.99725574,-0.99991403,-0.01311213,0,0)"
         sodipodi:open="true"
         d="m 422.30226,-575.33127 a 373.86261,322.49323 0 0 1 225.49719,5.21523"
         sodipodi:end="5.0456548"
         sodipodi:start="4.4327337"
         sodipodi:ry="322.49323"
         sodipodi:rx="373.86261"
         sodipodi:cy="-265.3667"
         sodipodi:cx="525.49744"
         sodipodi:type="arc"
         id="path4441-6"
         style="fill:none;fill-opacity:1;stroke:#000000;stroke-width:7.90440607;stroke-linecap:round;stroke-linejoin:round;stroke-miterlimit:4;stroke-dasharray:none;stroke-opacity:1" />
      <path
         inkscape:transform-center-y="15.95253"
         inkscape:transform-center-x="-0.15883745"
         transform="matrix(0.13410412,0.99096725,0.99879868,-0.04900211,0,0)"
         sodipodi:open="true"
         d="m 442.21416,204.83517 a 390.70404,397.99814 0 0 1 235.65519,6.43627"
         sodipodi:end="5.0456548"
         sodipodi:start="4.4327337"
         sodipodi:ry="397.99814"
         sodipodi:rx="390.70404"
         sodipodi:cy="587.37134"
         sodipodi:cx="550.05798"
         sodipodi:type="arc"
         id="path4441-6-5"
         style="fill:none;fill-opacity:1;stroke:#000000;stroke-width:8.97671413;stroke-linecap:round;stroke-linejoin:round;stroke-miterlimit:4;stroke-dasharray:none;stroke-opacity:1" />
    </g>
  </g>
</svg>
