<?xml version="1.0" encoding="UTF-8" standalone="no"?>
<!-- Created with Inkscape (http://www.inkscape.org/) -->

<svg
   xmlns:dc="http://purl.org/dc/elements/1.1/"
   xmlns:cc="http://creativecommons.org/ns#"
   xmlns:rdf="http://www.w3.org/1999/02/22-rdf-syntax-ns#"
   xmlns:svg="http://www.w3.org/2000/svg"
   xmlns="http://www.w3.org/2000/svg"
   xmlns:sodipodi="http://sodipodi.sourceforge.net/DTD/sodipodi-0.dtd"
   xmlns:inkscape="http://www.inkscape.org/namespaces/inkscape"
   id="svg2"
   sodipodi:docname="free-wifi-hotsop.svg"
   viewBox="0 0 468.74999 187.49999"
   version="1.1"
   inkscape:version="0.92.3 (2405546, 2018-03-11)"
   width="500"
   height="200">
  <defs
     id="defs51" />
  <sodipodi:namedview
     id="base"
     inkscape:snap-center="true"
     inkscape:snap-intersection-paths="true"
     inkscape:zoom="1.979899"
     borderopacity="1.0"
     inkscape:current-layer="layer1"
     inkscape:cx="267.32791"
     inkscape:cy="98.828343"
     inkscape:snap-bbox-midpoints="true"
     inkscape:object-paths="true"
     inkscape:document-units="px"
     inkscape:window-maximized="1"
     inkscape:snap-bbox="true"
     showgrid="false"
     inkscape:guide-bbox="true"
     inkscape:snap-midpoints="true"
     inkscape:snap-page="true"
     showguides="false"
     bordercolor="#666666"
     inkscape:window-x="2"
     inkscape:window-y="36"
     inkscape:snap-smooth-nodes="true"
     inkscape:object-nodes="true"
     inkscape:window-width="1916"
     inkscape:pageopacity="0.0"
     inkscape:pageshadow="2"
     pagecolor="#ffffff"
     inkscape:snap-global="false"
     inkscape:snap-object-midpoints="true"
     inkscape:bbox-paths="true"
     inkscape:bbox-nodes="true"
     inkscape:snap-bbox-edge-midpoints="true"
     inkscape:window-height="990">
    <sodipodi:guide
       id="guide2998"
       position="0.30046288,0.56062332"
       orientation="0,1"
       inkscape:locked="false" />
    <sodipodi:guide
       id="guide3000"
       position="0.20542829,0.56062332"
       orientation="1,0"
       inkscape:locked="false" />
    <sodipodi:guide
       id="guide3002"
       position="0.7276385,0.37007248"
       orientation="0,1"
       inkscape:locked="false" />
    <sodipodi:guide
       id="guide3004"
       position="0.81883333,0.56062332"
       orientation="1,0"
       inkscape:locked="false" />
    <sodipodi:guide
       id="guide3006"
       position="0.51357072,0.61899328"
       orientation="0,1"
       inkscape:locked="false" />
    <sodipodi:guide
       id="guide3008"
       position="0.51357072,0.31696257"
       orientation="0,1"
       inkscape:locked="false" />
    <sodipodi:guide
       id="guide3010"
       position="0.29950293,0.46797792"
       orientation="1,0"
       inkscape:locked="false" />
    <sodipodi:guide
       id="guide3012"
       position="0.7276385,0.46797792"
       orientation="1,0"
       inkscape:locked="false" />
    <sodipodi:guide
       id="guide3016"
       position="0.79771454,0.46695986"
       orientation="1,0"
       inkscape:locked="false" />
    <sodipodi:guide
       id="guide3018"
       position="0.7276385,0.54637018"
       orientation="0,1"
       inkscape:locked="false" />
    <sodipodi:guide
       id="guide3020"
       position="0.8188333,0.38432561"
       orientation="0,1"
       inkscape:locked="false" />
    <sodipodi:guide
       id="guide3026"
       position="0.22654709,0.38432561"
       orientation="1,0"
       inkscape:locked="false" />
    <sodipodi:guide
       id="guide3827"
       position="0.60920849,0.41993702"
       orientation="0,1"
       inkscape:locked="false" />
    <sodipodi:guide
       id="guide3829"
       position="0.57221477,0.41993702"
       orientation="1,0"
       inkscape:locked="false" />
    <sodipodi:guide
       id="guide3831"
       position="0.61022666,0.45065242"
       orientation="0,1"
       inkscape:locked="false" />
    <sodipodi:guide
       id="guide3833"
       position="0.60954787,0.41993702"
       orientation="1,0"
       inkscape:locked="false" />
    <sodipodi:guide
       id="guide3835"
       position="0.68082017,0.47224918"
       orientation="1,0"
       inkscape:locked="false" />
    <sodipodi:guide
       id="guide3837"
       position="0.68082017,0.47224918"
       orientation="0,1"
       inkscape:locked="false" />
    <sodipodi:guide
       id="guide3839"
       position="0.57221477,0.51544269"
       orientation="0,1"
       inkscape:locked="false" />
    <sodipodi:guide
       id="guide3841"
       position="0.61022666,0.49288608"
       orientation="0,1"
       inkscape:locked="false" />
    <sodipodi:guide
       id="guide3843"
       position="0.69100194,0.51544269"
       orientation="1,0"
       inkscape:locked="false" />
  </sodipodi:namedview>
  <g
     id="layer1"
     inkscape:label="Layer 1"
     inkscape:groupmode="layer"
     transform="translate(0,-864.90002)">
    <g
       id="g881"
       transform="matrix(0.38056511,0,0,0.38056511,-51.132837,745.59488)"
       style="stroke-width:2.62767124">
      <g
         id="g3884"
         style="stroke-width:2.62767124">
        <ellipse
           ry="155.71428"
           rx="150.71428"
           cy="558.79077"
           cx="392.85715"
           transform="matrix(1.0569,0,0,1.0206,-33.057,-10.463)"
           style="fill:#000000;stroke-width:2.62767124"
           id="path2996" />
        <rect
           x="152.86"
           y="462.35999"
           width="456.42999"
           height="199.28999"
           rx="80"
           style="fill:#000000;stroke-width:2.62767124"
           id="rect3014" />
      </g>
      <g
         id="g3873"
         style="stroke-width:2.62767124">
        <path
           inkscape:connector-curvature="0"
           style="fill:#ffffff;stroke-width:2.62767124"
           sodipodi:nodetypes="cccccccccccccc"
           d="m 192.94,509.91 24.244,100.51 h 24.496 l 11.364,-59.599 11.364,59.599 h 24.875 l 25.38,-100.51 h -28.284 l -9.5964,58.589 -11.364,-58.589 h -24.37 l -11.238,58.084 -9.5964,-58.084 z"
           id="path3803" />
        <rect
           x="324.76001"
           y="538.19"
           width="27.274"
           height="71.721001"
           style="fill:#ffffff;stroke-width:2.62767124"
           id="rect3805" />
        <ellipse
           ry="11.869292"
           rx="15.657365"
           cy="517.23389"
           cx="339.41125"
           transform="translate(-0.73731)"
           style="fill:#ffffff;stroke-width:2.62767124"
           id="path3807" />
      </g>
      <g
         id="g3888"
         style="stroke-width:2.62767124">
        <path
           inkscape:connector-curvature="0"
           style="fill:#ffffff;stroke-width:2.62767124"
           sodipodi:nodetypes="cscssssc"
           d="m 450.28,477.38 c -1.8878,0.19925 -3.7665,0.1101 -5.6562,0.59375 -101.55,25.99 -11.967,138.06 -89.079,170.19 l 178.02,-0.25254 c 33.24,-0.0472 60,-26.76 60,-60 v -50.531 c 0,-33.24 -26.76,-60 -60,-60 z"
           id="rect3030" />
        <path
           inkscape:connector-curvature="0"
           style="fill:#000000;stroke-width:2.62767124"
           sodipodi:nodetypes="ccccccccccc"
           d="m 425.78,509.91 h 88.388 v 23.739 h -60.609 v 21.718 h 53.033 v 22.728 h -53.033 v 32.325 h -27.653 z"
           id="path3809" />
      </g>
      <g
         id="g3863"
         style="stroke-width:2.62767124">
        <rect
           x="527.79999"
           y="537.69"
           width="27.274"
           height="71.721001"
           style="fill:#000000;stroke-width:2.62767124"
           id="rect3823" />
        <ellipse
           ry="11.869292"
           rx="15.657365"
           cy="517.23389"
           cx="339.41125"
           transform="translate(202.3,-0.50508)"
           style="fill:#000000;stroke-width:2.62767124"
           id="path3825" />
      </g>
      <g
         style="fill:#ffffff;stroke-width:2.62767124"
         id="text3892">
        <path
           inkscape:connector-curvature="0"
           d="m 355.57,424.84 c -1.112,-0.43746 -2.1784,-0.65621 -3.1992,-0.65625 -2.7708,4e-5 -4.1563,1.5039 -4.1562,4.5117 v 2.9805 h 6.3984 v 6.3711 h -6.3984 v 21.629 h -8.6133 v -21.629 h -4.7031 v -6.3711 h 4.7031 v -3.4727 c 0,-3.1901 1.0391,-5.7604 3.1172,-7.7109 2.0781,-1.9505 4.9036,-2.9257 8.4766,-2.9258 1.75,5e-5 3.2083,0.18234 4.375,0.54688 z"
           id="path3910"
           style="stroke-width:2.62767124" />
        <path
           inkscape:connector-curvature="0"
           d="m 377.01,439.47 c -1.0391,-0.56509 -2.2513,-0.84764 -3.6367,-0.84766 -1.8776,2e-5 -3.3451,0.68817 -4.4023,2.0644 -1.0573,1.3763 -1.586,3.2494 -1.5859,5.6192 v 13.371 h -8.6406 v -28 h 8.6406 v 5.1953 h 0.10938 c 1.3672,-3.7916 3.8281,-5.6875 7.3828,-5.6875 0.91144,3e-5 1.6224,0.1094 2.1328,0.32813 z"
           id="path3912"
           style="stroke-width:2.62767124" />
        <path
           inkscape:connector-curvature="0"
           d="m 406.21,448.14 h -18.266 c 0.29166,4.0651 2.8528,6.0977 7.6836,6.0976 3.0807,1e-5 5.7877,-0.72916 8.1211,-2.1875 v 6.2344 c -2.5886,1.3854 -5.9518,2.0781 -10.09,2.0781 -4.5208,0 -8.03,-1.2532 -10.527,-3.7598 -2.4974,-2.5065 -3.7461,-6.002 -3.7461,-10.486 0,-4.6484 1.349,-8.3307 4.0469,-11.047 2.6979,-2.7161 6.0156,-4.0742 9.9531,-4.0742 4.0833,2e-5 7.2415,1.2123 9.4746,3.6367 2.233,2.4245 3.3496,5.7149 3.3496,9.8711 z m -8.0117,-5.3047 c -2e-5,-4.0104 -1.6224,-6.0156 -4.8672,-6.0156 -1.3854,3e-5 -2.584,0.57424 -3.5957,1.7227 -1.0117,1.14846 -1.627,2.5794 -1.8457,4.293 z"
           id="path3914"
           style="stroke-width:2.62767124" />
        <path
           inkscape:connector-curvature="0"
           d="m 436.51,448.14 h -18.266 c 0.29165,4.0651 2.8528,6.0977 7.6836,6.0976 3.0807,1e-5 5.7877,-0.72916 8.1211,-2.1875 v 6.2344 c -2.5886,1.3854 -5.9518,2.0781 -10.09,2.0781 -4.5208,0 -8.03,-1.2532 -10.527,-3.7598 -2.4974,-2.5065 -3.7461,-6.002 -3.7461,-10.486 0,-4.6484 1.349,-8.3307 4.0469,-11.047 2.6979,-2.7161 6.0156,-4.0742 9.9531,-4.0742 4.0833,2e-5 7.2415,1.2123 9.4746,3.6367 2.233,2.4245 3.3496,5.7149 3.3496,9.8711 z m -8.0117,-5.3047 c -2e-5,-4.0104 -1.6224,-6.0156 -4.8672,-6.0156 -1.3854,3e-5 -2.584,0.57424 -3.5957,1.7227 -1.0117,1.14846 -1.627,2.5794 -1.8457,4.293 z"
           id="path3916"
           style="stroke-width:2.62767124" />
      </g>
      <g
         style="fill:#ffffff;stroke-width:2.62767124"
         id="text3896">
        <path
           inkscape:connector-curvature="0"
           d="m 327,697.34 v -7 c 1.4219,0.85678 2.8392,1.4948 4.252,1.9141 1.4128,0.41927 2.748,0.62891 4.0059,0.6289 1.5312,10e-6 2.7389,-0.20963 3.623,-0.6289 0.8841,-0.41927 1.3262,-1.0573 1.3262,-1.9141 -2e-5,-0.54686 -0.20054,-1.0026 -0.60156,-1.3672 -0.40106,-0.36458 -0.91603,-0.68359 -1.5449,-0.95704 -0.62891,-0.27342 -1.3171,-0.51952 -2.0644,-0.73828 -0.7474,-0.21874 -1.4675,-0.46483 -2.1602,-0.73828 -1.112,-0.41926 -2.0918,-0.87043 -2.9395,-1.3535 -0.84766,-0.48306 -1.5586,-1.0436 -2.1328,-1.6816 -0.57422,-0.63801 -1.0117,-1.3763 -1.3125,-2.2148 -0.30078,-0.83852 -0.45117,-1.832 -0.45117,-2.9805 0,-1.5677 0.34179,-2.9166 1.0254,-4.0469 0.68359,-1.1302 1.595,-2.0553 2.7344,-2.7754 1.1393,-0.72003 2.4427,-1.2487 3.9102,-1.5859 1.4674,-0.33721 2.9941,-0.50583 4.5801,-0.50586 1.2396,3e-5 2.4974,0.0957 3.7734,0.28711 1.276,0.19144 2.5338,0.46943 3.7734,0.83398 v 6.6719 c -1.0938,-0.638 -2.265,-1.1165 -3.5137,-1.4356 -1.2487,-0.31898 -2.4746,-0.47849 -3.6777,-0.47851 -0.56512,2e-5 -1.0983,0.0502 -1.5996,0.15039 -0.50132,0.10028 -0.94337,0.24611 -1.3262,0.4375 -0.38283,0.19143 -0.68361,0.43752 -0.90235,0.73828 -0.21876,0.3008 -0.32813,0.6426 -0.32812,1.0254 -10e-6,0.51044 0.16405,0.94794 0.49218,1.3125 0.32812,0.3646 0.7565,0.67905 1.2852,0.94336 0.52863,0.26434 1.1165,0.50132 1.7637,0.71094 0.64712,0.20965 1.2897,0.42384 1.9277,0.64257 1.1484,0.40106 2.1875,0.83856 3.1172,1.3125 0.92967,0.47398 1.7272,1.03 2.3926,1.668 0.66535,0.63804 1.1758,1.3854 1.5312,2.2422 0.35545,0.85678 0.53318,1.8776 0.53321,3.0625 -3e-5,1.6589 -0.36005,3.0762 -1.0801,4.252 -0.72008,1.1758 -1.6771,2.1328 -2.8711,2.8711 -1.194,0.73828 -2.5703,1.276 -4.1289,1.6133 -1.5586,0.33724 -3.1764,0.50586 -4.8535,0.50586 -3.0807,0 -5.9336,-0.47396 -8.5586,-1.4219 z"
           id="path3901"
           style="stroke-width:2.62767124" />
        <path
           inkscape:connector-curvature="0"
           d="m 362.19,694.82 h -0.10937 v 16.133 h -8.6406 v -40.879 h 8.6406 v 4.2109 H 362.19 c 2.1328,-3.263 5.1315,-4.8945 8.9961,-4.8945 3.6276,3e-5 6.4303,1.2442 8.4082,3.7324 1.9778,2.4883 2.9668,5.8744 2.9668,10.158 -3e-5,4.6667 -1.153,8.4128 -3.459,11.238 -2.306,2.8255 -5.3731,4.2383 -9.2012,4.2383 -3.3724,0 -5.9427,-1.3125 -7.7109,-3.9375 z m -0.24609,-11.484 v 2.2422 c -1e-5,1.9323 0.5104,3.5091 1.5312,4.7305 1.0208,1.2214 2.3607,1.832 4.0195,1.832 1.9687,10e-6 3.4954,-0.76106 4.5801,-2.2832 1.0846,-1.5221 1.6269,-3.6777 1.627,-6.4668 -2e-5,-4.9218 -1.9141,-7.3828 -5.7422,-7.3828 -1.7682,2e-5 -3.2129,0.66994 -4.334,2.0098 -1.1211,1.33986 -1.6816,3.1126 -1.6816,5.3184 z"
           id="path3903"
           style="stroke-width:2.62767124" />
        <path
           inkscape:connector-curvature="0"
           d="m 401.57,698.76 c -4.6667,0 -8.3353,-1.3079 -11.006,-3.9238 -2.6706,-2.6159 -4.0059,-6.166 -4.0058,-10.65 -10e-6,-4.6302 1.3854,-8.2532 4.1562,-10.869 2.7708,-2.6159 6.5169,-3.9238 11.238,-3.9238 4.6484,3e-5 8.2942,1.308 10.938,3.9238 2.6432,2.6159 3.9648,6.0749 3.9648,10.377 -3e-5,4.6484 -1.3627,8.3216 -4.0879,11.02 -2.7253,2.6979 -6.4577,4.0469 -11.197,4.0469 z m 0.21875,-22.75 c -2.0417,2e-5 -3.6276,0.70184 -4.7578,2.1055 -1.1302,1.40366 -1.6953,3.3906 -1.6953,5.9609 -10e-6,5.3776 2.1693,8.0664 6.5078,8.0664 4.138,1e-5 6.207,-2.7617 6.207,-8.2852 -2e-5,-5.2318 -2.0873,-7.8476 -6.2617,-7.8476 z"
           id="path3905"
           style="stroke-width:2.62767124" />
        <path
           inkscape:connector-curvature="0"
           d="m 439.38,697.75 c -1.2761,0.67448 -3.1992,1.0117 -5.7695,1.0117 -6.0886,0 -9.1328,-3.1628 -9.1328,-9.4883 v -12.824 h -4.5391 v -6.3711 h 4.5391 v -6.043 l 8.6133,-2.4609 v 8.5039 h 6.2891 v 6.3711 h -6.2891 v 11.32 c -2e-5,2.9167 1.1575,4.375 3.4726,4.375 0.91144,10e-6 1.8502,-0.26432 2.8164,-0.79297 z"
           id="path3907"
           style="stroke-width:2.62767124" />
      </g>
    </g>
    <text
       xml:space="preserve"
       style="font-style:normal;font-weight:normal;font-size:37.53168869px;line-height:94.69999671%;font-family:sans-serif;text-align:start;letter-spacing:0px;word-spacing:0px;text-anchor:start;opacity:0.98000004;fill:#000000;fill-opacity:1;stroke:none;stroke-width:3.54330707px;stroke-linecap:butt;stroke-linejoin:miter;stroke-opacity:1"
       x="79.430206"
       y="913.47882"
       id="text836"
       transform="scale(1.000845,0.99915571)"><tspan
         sodipodi:role="line"
         x="178.36575"
         y="913.47882"
         id="tspan834"
         style="font-size:40px;text-align:start;text-anchor:start;stroke-width:3.54330707px"><tspan
           x="178.36575"
           y="913.47882"
           style="font-size:40px;text-align:start;text-anchor:start;stroke-width:3.54330707px"
           id="tspan830"
           dx="0 0 0 0 0 0 0 0 0 0 0">{{ txt1 }}</tspan></tspan></text>
    <text
       xml:space="preserve"
       style="font-style:normal;font-weight:normal;font-size:37.53168869px;line-height:94.69999671%;font-family:sans-serif;text-align:center;letter-spacing:0px;word-spacing:0px;text-anchor:middle;opacity:0.98000004;fill:#000000;fill-opacity:1;stroke:none;stroke-width:3.54330707px;stroke-linecap:butt;stroke-linejoin:miter;stroke-opacity:1"
       x="195.73941"
       y="1029.3191"
       id="text836-6"
       transform="scale(1.000845,0.99915571)"><tspan
         sodipodi:role="line"
         x="251.39066"
         y="1029.3191"
         id="tspan834-2"
         style="font-size:27.49999809px;stroke-width:3.54330707px"><tspan
           x="251.39066"
           y="1029.3191"
           style="font-size:27.49999809px;stroke-width:3.54330707px"
           id="tspan830-9"
           dx="0 0 0 0 0 0 0 0 0 0 0">{{ txt2 }}</tspan></tspan></text>
  </g>
  <metadata
     id="metadata48">
    <rdf:RDF>
      <cc:Work>
        <dc:format>image/svg+xml</dc:format>
        <dc:type
           rdf:resource="http://purl.org/dc/dcmitype/StillImage" />
        <cc:license
           rdf:resource="http://creativecommons.org/publicdomain/zero/1.0/" />
        <dc:publisher>
          <cc:Agent
             rdf:about="http://openclipart.org/">
            <dc:title>Openclipart</dc:title>
          </cc:Agent>
        </dc:publisher>
        <dc:title>Free WiFi Hotspot</dc:title>
        <dc:date>2012-08-10T11:43:54</dc:date>
        <dc:description>Free wifi hotspot sign</dc:description>
        <dc:source>https://openclipart.org/detail/171602/free-wifi-hotspot-by-malkowitch-171602</dc:source>
        <dc:creator>
          <cc:Agent>
            <dc:title>malkowitch</dc:title>
          </cc:Agent>
        </dc:creator>
        <dc:subject>
          <rdf:Bag>
            <rdf:li>free</rdf:li>
            <rdf:li>hotspot</rdf:li>
            <rdf:li>wifi</rdf:li>
          </rdf:Bag>
        </dc:subject>
      </cc:Work>
      <cc:License
         rdf:about="http://creativecommons.org/publicdomain/zero/1.0/">
        <cc:permits
           rdf:resource="http://creativecommons.org/ns#Reproduction" />
        <cc:permits
           rdf:resource="http://creativecommons.org/ns#Distribution" />
        <cc:permits
           rdf:resource="http://creativecommons.org/ns#DerivativeWorks" />
      </cc:License>
    </rdf:RDF>
  </metadata>
</svg>
