<?xml version="1.0" encoding="UTF-8" standalone="no"?>
<!-- Created with Inkscape (http://www.inkscape.org/) -->

<svg
   xmlns:dc="http://purl.org/dc/elements/1.1/"
   xmlns:cc="http://creativecommons.org/ns#"
   xmlns:rdf="http://www.w3.org/1999/02/22-rdf-syntax-ns#"
   xmlns:svg="http://www.w3.org/2000/svg"
   xmlns="http://www.w3.org/2000/svg"
   xmlns:sodipodi="http://sodipodi.sourceforge.net/DTD/sodipodi-0.dtd"
   xmlns:inkscape="http://www.inkscape.org/namespaces/inkscape"
   width="57mm"
   height="26mm"
   viewBox="0 0 57.000001 26"
   version="1.1"
   id="svg8"
   inkscape:version="0.92.3 (2405546, 2018-03-11)"
   sodipodi:docname="pirat.svg"
   inkscape:export-filename="/home/cyril/technique/linux/thermalprinter/img.png"
   inkscape:export-xdpi="171.11578"
   inkscape:export-ydpi="171.11578">
  <defs
     id="defs2">
    <inkscape:perspective
       sodipodi:type="inkscape:persp3d"
       inkscape:vp_x="0 : 13 : 1"
       inkscape:vp_y="0 : 1000 : 0"
       inkscape:vp_z="57.000001 : 13 : 1"
       inkscape:persp3d-origin="28.5 : 8.6666667 : 1"
       id="perspective849" />
  </defs>
  <sodipodi:namedview
     id="base"
     pagecolor="#ffffff"
     bordercolor="#666666"
     borderopacity="1.0"
     inkscape:pageopacity="0.0"
     inkscape:pageshadow="2"
     inkscape:zoom="2.8284271"
     inkscape:cx="120.71497"
     inkscape:cy="78.657733"
     inkscape:document-units="mm"
     inkscape:current-layer="layer1"
     showgrid="false"
     inkscape:window-width="1916"
     inkscape:window-height="990"
     inkscape:window-x="2"
     inkscape:window-y="36"
     inkscape:window-maximized="1"
     units="mm"
     showguides="true"
     inkscape:guide-bbox="true"
     guidetolerance="4"
     objecttolerance="5">
    <sodipodi:guide
       position="49.145055,3.5718697"
       orientation="0,1"
       id="guide4577"
       inkscape:locked="false" />
  </sodipodi:namedview>
  <metadata
     id="metadata5">
    <rdf:RDF>
      <cc:Work
         rdf:about="">
        <dc:format>image/svg+xml</dc:format>
        <dc:type
           rdf:resource="http://purl.org/dc/dcmitype/StillImage" />
        <dc:title></dc:title>
      </cc:Work>
    </rdf:RDF>
  </metadata>
  <g
     inkscape:label="Calque 1"
     inkscape:groupmode="layer"
     id="layer1"
     transform="translate(0,-271)"
     style="opacity:0.98">
    <flowRoot
       xml:space="preserve"
       id="flowRoot4555"
       style="font-style:normal;font-weight:normal;font-size:40px;line-height:125%;font-family:STIXIntegralsD;letter-spacing:0px;word-spacing:0px;fill:#000000;fill-opacity:1;stroke:none;stroke-width:1px;stroke-linecap:butt;stroke-linejoin:miter;stroke-opacity:1;-inkscape-font-specification:STIXIntegralsD;font-stretch:normal;font-variant:normal"
       transform="matrix(0.26458333,0,0,0.26458333,0,275)"><flowRegion
         id="flowRegion4557"
         style="-inkscape-font-specification:STIXIntegralsD;font-family:STIXIntegralsD;font-weight:normal;font-style:normal;font-stretch:normal;font-variant:normal"><rect
           id="rect4559"
           width="124.45079"
           height="97.580734"
           x="239.7092"
           y="2.5394316"
           style="-inkscape-font-specification:STIXIntegralsD;font-family:STIXIntegralsD;font-weight:normal;font-style:normal;font-stretch:normal;font-variant:normal" /></flowRegion><flowPara
         id="flowPara4561" /></flowRoot>    <path
       style="fill:none;fill-rule:evenodd;stroke:#000000;stroke-width:0.16500001;stroke-linecap:butt;stroke-linejoin:miter;stroke-miterlimit:4;stroke-dasharray:none;stroke-opacity:1"
       d="m 3.2900569,271.05314 0.6781957,-0.006"
       id="path4691"
       inkscape:connector-curvature="0"
       sodipodi:nodetypes="cc" />
    <text
       xml:space="preserve"
       style="font-style:normal;font-weight:normal;font-size:10.59227657px;line-height:94.69999671%;font-family:sans-serif;text-align:center;letter-spacing:0px;word-spacing:0px;text-anchor:middle;fill:#000000;fill-opacity:1;stroke:none;stroke-width:1px;stroke-linecap:butt;stroke-linejoin:miter;stroke-opacity:1"
       x="9.3085051"
       y="276.88962"
       id="text836"
       transform="scale(1.000845,0.99915571)"><tspan
         sodipodi:role="line"
         x="23.269403"
         y="276.88962"
         id="tspan834"
         style="font-size:5.64444447px;text-align:start;text-anchor:start;stroke-width:1px"><tspan
           x="23.269403"
           y="276.88962"
           style="font-size:5.64444447px;text-align:start;text-anchor:start;stroke-width:1px"
           id="tspan830"
           dx="0 0 0 0 0 0 0 0 0 0 0">{{ txt1 }}</tspan></tspan></text>
    <text
       xml:space="preserve"
       style="font-style:normal;font-weight:normal;font-size:10.58333302px;line-height:125%;font-family:sans-serif;letter-spacing:0px;word-spacing:0px;fill:#000000;fill-opacity:1;stroke:none;stroke-width:0.26458332px;stroke-linecap:butt;stroke-linejoin:miter;stroke-opacity:1"
       x="28.156845"
       y="290.35834"
       id="text882"><tspan
         sodipodi:role="line"
         id="tspan880"
         x="28.156845"
         y="299.72211"
         style="stroke-width:0.26458332px" /></text>
    <g
       id="g2461"
       transform="matrix(0.03216187,0,0,0.03216187,-0.08737905,263.10477)">
      <circle
         cx="240"
         cy="240"
         r="200"
         style="font-size:12px;fill:#ffffff;fill-opacity:1;stroke:none;stroke-width:20"
         id="circle3187"
         transform="matrix(1.65789,0,0,1.65789,-32.17932,194.46858)" />
      <g
         id="g2792"
         transform="matrix(2.486835,0,0,2.486835,458.08338,-205.74712)"
         style="fill:#ffffff;fill-opacity:1">
        <path
           inkscape:connector-curvature="0"
           sodipodi:nodetypes="cccccccccccccccccccc"
           d="m 21.6168,356.02023 c -14.70915,7.27535 -99.00891,31.7908 -111.97814,38.67064 -12.96923,6.87984 -24.75194,13.28496 -39.61894,18.97884 -12.09957,3.00509 -11.62484,-4.42813 -26.33393,0.47473 -4.19128,3.32138 -4.11218,8.06581 -0.71169,11.62427 3.95408,3.87533 6.72198,6.32704 10.20162,9.72764 1.10732,4.90286 1.26518,9.09391 1.89777,14.94565 2.3725,7.19671 7.59165,6.8012 12.099,3.32196 1.97699,-2.45172 4.4287,-4.66578 5.93096,-7.35458 2.0562,-3.55846 4.34948,-7.59165 7.11749,-10.91303 l 35.82341,-18.97941 100.59038,-33.45148 53.85393,-25.38453 c 10.20123,-4.03319 11.62484,1.66069 20.64011,0 6.87984,-0.0792 12.57372,-2.76744 12.09956,-9.25178 -3.47981,-5.14107 -6.72255,-8.38324 -12.81137,-13.9979 0.31629,-6.01018 -0.79102,-11.78328 -3.0843,-17.55581 -2.3725,-3.40059 -6.64277,-4.90342 -13.04789,1.18597 -6.4849,4.90286 -4.42927,11.46698 -12.57429,18.26761 -13.28554,6.56355 -25.38453,12.41586 -40.09368,19.69121 z"
           style="font-size:12px;fill:#ffffff;fill-opacity:1;fill-rule:evenodd;stroke:none;stroke-width:5.1807723;stroke-linecap:butt;stroke-linejoin:round;stroke-opacity:0.99122799"
           id="path2705" />
        <path
           inkscape:connector-curvature="0"
           sodipodi:nodetypes="cccccccccccccccccccc"
           d="m -89.9909,383.7596 c 18.17357,8.94688 98.55925,32.04553 98.55925,32.04553 l 36.06105,18.74176 c 8.54054,7.43379 6.40569,12.49451 12.33665,17.08165 5.85174,5.37758 9.56864,6.24725 13.04788,1.18653 2.76801,-5.7731 2.21464,-11.54619 3.08488,-17.79345 4.03262,-3.87476 7.35457,-5.85174 10.67595,-9.7265 3.63768,-4.03319 3.47868,-8.06638 -2.13599,-10.91303 -4.66577,-1.89777 -9.09391,-2.84723 -14.70857,-1.18654 -3.55903,1.10732 -7.35457,1.73991 -12.099,-0.23708 L 15.92292,394.92795 -94.68802,356.5833 c -14.87442,-7.26966 -27.23215,-12.69398 -41.93902,-20.80196 -7.99628,-6.37491 -5.42375,-13.58872 -15.09765,-19.45984 -4.2498,-2.12459 -7.32528,-3.07518 -10.7363,2.68423 -2.18084,5.14507 -2.01306,10.62467 -2.34857,15.93729 -3.80243,4.08163 -8.10815,6.48661 -11.23958,11.57526 -4.52941,7.26965 2.3485,9.67406 6.03912,10.56881 10.51257,2.62781 14.31495,-2.12516 23.98873,-0.16812 18.84492,8.77932 37.85682,17.89375 56.03039,26.84063 z"
           style="font-size:12px;fill:#ffffff;fill-opacity:1;fill-rule:evenodd;stroke:none;stroke-width:5.1807723;stroke-linecap:butt;stroke-linejoin:round;stroke-opacity:0.99122799"
           id="path2703" />
        <path
           inkscape:connector-curvature="0"
           sodipodi:nodetypes="cccccccccccccccccccsc"
           d="m -37.21931,434.42892 c -10.83372,0 -17.16019,-0.94945 -27.2822,-4.62645 -9.8855,-4.03319 -19.77043,-16.13219 -22.30136,-26.33342 -1.97699,-7.43379 -2.53036,-16.76535 -0.71181,-24.67329 -0.39551,-9.80572 -4.58656,-19.13728 -8.481,-29.27217 -2.91288,-1.73669 -5.66792,-3.18289 -8.04955,-5.29689 -4.4173,-3.97563 -7.84184,-14.24638 -6.62681,-26.17327 0.70199,-4.12364 1.51635,-3.18825 1.32502,-10.93298 -10.90562,-10.60187 -18.52748,-29.00112 -19.58522,-48.87015 -1.14835,-21.8956 10.38246,-43.63738 27.66129,-56.03221 19.35897,-13.62599 51.72763,-17.39452 71.85426,-16.37753 13.6326,0.009 43.99977,7.07828 54.71904,15.06117 18.80331,13.67198 28.88714,33.07706 29.58584,55.19491 1.03323,22.21645 -8.32397,39.13795 -20.01099,49.24415 0.6221,4.07788 1.5921,8.40013 2.26984,12.38134 1.21503,11.92689 -2.20951,22.19764 -6.62681,26.17327 -2.26718,2.01242 -5.50044,3.54668 -8.5733,5.46993 -3.92859,10.29315 -8.11964,19.62471 -8.51515,29.43043 1.81855,7.90794 1.26518,17.2395 -0.71181,24.67329 -2.53093,10.20123 -12.5344,21.94461 -22.4199,25.9778 -9.88493,4.03319 -16.21083,4.98207 -27.51938,4.98207 z"
           style="font-size:12px;fill:#ffffff;fill-opacity:1;fill-rule:evenodd;stroke:none;stroke-width:5.1807723;stroke-linecap:round;stroke-linejoin:round;stroke-opacity:0.99122799"
           id="path2691" />
      </g>
      <g
         id="g670"
         style="font-size:12px;fill:#000000;fill-opacity:1;stroke:none;stroke-opacity:0.99122799"
         transform="matrix(1.417251,0,0,1.417251,-56.900914,221.30504)">
        <path
           inkscape:connector-curvature="0"
           style="fill:#000000;fill-opacity:1;fill-rule:evenodd;stroke:none;stroke-width:0.72725232pt;stroke-linecap:butt;stroke-linejoin:miter;stroke-opacity:0.99122799"
           d="m 294.895,259.711 c -9.696,7.373 -11.853,9.849 -17.211,18.008 -1.939,3.149 -5.56,10.508 -6.55,15.445 -0.989,4.936 -1.73,12.098 -1.727,15.891 0.012,12.853 4.103,20.916 8.571,20.635 3.992,-0.458 9.072,-4.621 16.77,-14.076"
           id="path584"
           sodipodi:nodetypes="cssssc" />
        <path
           inkscape:connector-curvature="0"
           style="fill:#000000;fill-opacity:1;fill-rule:evenodd;stroke:none;stroke-width:0.72725232pt;stroke-linecap:butt;stroke-linejoin:bevel;stroke-opacity:0.99122799"
           d="m 294.895,259.711 c -9.696,7.373 -11.853,9.849 -17.211,18.008 -1.939,3.149 -5.56,10.508 -6.55,15.445 -0.989,4.936 -1.73,12.098 -1.727,15.891 0.012,12.853 4.103,20.916 8.571,20.635 3.992,-0.458 9.072,-4.621 16.77,-14.076"
           id="path585"
           sodipodi:nodetypes="cssssc"
           transform="matrix(-1,0,0,1,596.772,0.208099)" />
        <path
           inkscape:connector-curvature="0"
           style="fill:#000000;fill-opacity:1;fill-rule:evenodd;stroke:none;stroke-width:0.72725232pt;stroke-linecap:butt;stroke-linejoin:miter;stroke-opacity:0.99122799"
           d="m 211.888,203.561 c 13.46,-2.359 26.503,-3.885 39.963,-5.411 17.623,-4.441 26.504,15.68 21.647,30.805 -6.105,13.46 -14.708,25.255 -24.56,36.633 -7.632,8.603 -16.724,9.995 -25.394,7.076 -6.998,-1.94 -13.461,-6.243 -20.399,-16.234 -3.052,-8.604 -5.688,-13.045 -9.574,-23.729 -3.052,-9.852 1.695,-24.6 18.317,-29.14 z"
           id="path586"
           sodipodi:nodetypes="ccccsccc"
           transform="translate(0.588722,-3.051758e-5)" />
        <path
           inkscape:connector-curvature="0"
           style="fill:#000000;fill-opacity:1;fill-rule:evenodd;stroke:none;stroke-width:0.72725232pt;stroke-linecap:butt;stroke-linejoin:miter;stroke-opacity:0.99122799"
           d="m 211.888,203.561 c 13.46,-2.359 26.503,-3.885 39.963,-5.411 17.623,-4.441 26.504,15.68 21.647,30.805 -6.105,13.46 -14.708,25.255 -24.56,36.633 -7.632,8.603 -16.724,9.995 -25.394,7.076 -6.998,-1.94 -13.461,-6.243 -20.399,-16.234 -3.052,-8.604 -5.688,-13.045 -9.574,-23.729 -3.052,-9.852 1.695,-24.6 18.317,-29.14 z"
           id="path587"
           sodipodi:nodetypes="ccccsccc"
           transform="matrix(-1,0,0,1,596.4468,-3.051758e-5)" />
      </g>
      <g
         style="font-size:12px;stroke:#000000;stroke-opacity:1"
         id="g770"
         transform="matrix(1.417251,0,0,1.417251,-56.900914,224.16218)">
        <path
           inkscape:connector-curvature="0"
           sodipodi:nodetypes="ccccccccccc"
           id="path765"
           d="m 391.308,389.636 68.272,31.638 c 8.325,3.469 14.985,2.359 21.23,0.416 9.852,-2.914 17.622,-1.248 25.809,2.082 9.852,4.995 10.131,12.072 3.748,19.149 -5.828,6.799 -11.657,10.268 -18.733,17.067 -1.527,10.962 -0.556,21.092 -5.413,31.222 -6.105,8.88 -12.627,7.354 -22.895,-2.082 -10.407,-8.049 -6.661,-16.929 -21.647,-29.973 l -63.276,-32.886 v 0"
           style="fill:none;fill-opacity:1;fill-rule:evenodd;stroke:#000000;stroke-width:9.09065342;stroke-linecap:butt;stroke-linejoin:round;stroke-dasharray:none;stroke-opacity:1" />
        <path
           inkscape:connector-curvature="0"
           sodipodi:nodetypes="cccccccccc"
           id="path766"
           d="m 204.812,389.22 c -22.757,12.072 -43.432,23.311 -69.519,33.302 -21.231,5.273 -20.398,-7.77 -46.2079,0.833 -7.3544,5.828 -7.2156,14.153 -1.2488,20.397 6.9382,6.8 11.795,11.102 17.9007,17.069 1.943,8.603 2.22,15.957 3.33,26.225 4.163,12.628 13.321,11.934 21.23,5.829 3.469,-4.302 7.771,-8.187 10.407,-12.905 3.608,-6.244 7.632,-13.321 12.489,-19.149 l 62.859,-33.303"
           style="fill:none;fill-opacity:1;fill-rule:evenodd;stroke:#000000;stroke-width:9.09065342;stroke-linecap:butt;stroke-linejoin:round;stroke-dasharray:none;stroke-opacity:1" />
        <path
           inkscape:connector-curvature="0"
           sodipodi:nodetypes="cccccccccc"
           id="path767"
           d="m 401.299,321.365 c 25.81,-12.766 47.04,-23.035 70.352,-34.552 14.292,-11.933 10.685,-23.451 22.064,-32.054 11.239,-10.685 18.732,-8.048 22.895,-2.081 4.024,10.129 5.967,20.259 5.412,30.805 10.684,9.852 16.374,15.541 22.48,24.562 0.832,11.378 -9.159,16.095 -21.231,16.234 -15.819,2.914 -18.317,-7.077 -36.217,0 l -94.497,44.542 v 0"
           style="fill:none;fill-opacity:1;fill-rule:evenodd;stroke:#000000;stroke-width:9.09065342;stroke-linecap:square;stroke-linejoin:round;stroke-dasharray:none;stroke-opacity:1" />
        <path
           inkscape:connector-curvature="0"
           sodipodi:nodetypes="ccccccccc"
           id="path769"
           d="m 197.22,322.353 c -26.1,-12.756 -47.784,-22.274 -73.59,-36.501 -14.031,-11.186 -9.517,-23.844 -26.4917,-34.146 -7.4571,-3.728 -12.8536,-5.396 -18.8389,4.71 -3.8267,9.028 -3.5323,18.643 -4.121,27.965 -6.6721,7.162 -14.2273,11.382 -19.722,20.311 -7.9477,12.756 4.1209,16.975 10.5968,18.545 18.4463,4.611 25.1183,-3.729 42.0928,-0.295 33.067,15.405 66.427,31.398 98.316,47.097"
           style="fill:none;fill-opacity:1;fill-rule:evenodd;stroke:#000000;stroke-width:9.09065342;stroke-linecap:butt;stroke-linejoin:round;stroke-dasharray:none;stroke-opacity:1" />
      </g>
      <g
         style="font-size:12px;fill:none;fill-opacity:1;stroke:#000000;stroke-opacity:1"
         id="g740"
         transform="matrix(1.417251,0,0,1.417251,-56.900914,224.16218)">
        <g
           style="font-size:12px;fill:none;fill-opacity:1;stroke:#000000;stroke-opacity:1"
           id="g652">
          <path
             inkscape:connector-curvature="0"
             sodipodi:nodetypes="csc"
             id="path611"
             d="m 212.232,318.53 c 5.69,13.344 7.45,18.415 11.553,31.718 3.496,12.289 4.781,19.794 6.941,37.258"
             style="fill:none;fill-opacity:1;fill-rule:evenodd;stroke:#000000;stroke-width:4.54532671;stroke-linecap:butt;stroke-linejoin:miter;stroke-dasharray:none;stroke-opacity:1" />
          <path
             inkscape:connector-curvature="0"
             transform="matrix(-1,0,0,1,596.3183,-0.735886)"
             sodipodi:nodetypes="csc"
             id="path612"
             d="m 212.232,318.53 c 5.69,13.344 7.45,18.415 11.553,31.718 3.496,12.289 4.781,19.794 6.941,37.258"
             style="fill:none;fill-opacity:1;fill-rule:evenodd;stroke:#000000;stroke-width:4.54532671;stroke-linecap:butt;stroke-linejoin:miter;stroke-dasharray:none;stroke-opacity:1" />
          <g
             style="fill:none;fill-opacity:1;stroke:#000000;stroke-opacity:1"
             id="g637">
            <path
               inkscape:connector-curvature="0"
               sodipodi:nodetypes="csc"
               id="path588"
               d="m 236.516,349.732 c 14.718,9.027 40.161,10.419 62.956,10.009 25.394,-0.129 47.133,-1.963 61.409,-10.597"
               style="fill:none;fill-opacity:1;fill-rule:evenodd;stroke:#000000;stroke-width:3.63626146;stroke-linecap:butt;stroke-linejoin:miter;stroke-dasharray:none;stroke-opacity:1" />
            <path
               inkscape:connector-curvature="0"
               sodipodi:nodetypes="csc"
               id="path608"
               d="m 241.667,373.282 c 16.238,10.204 35.334,13.708 57.326,12.878 22.842,-0.556 40.351,-2.478 56.001,-13.172"
               style="fill:none;fill-opacity:1;fill-rule:evenodd;stroke:#000000;stroke-width:3.63626146;stroke-linecap:butt;stroke-linejoin:miter;stroke-dasharray:none;stroke-opacity:1" />
            <g
               style="fill:none;fill-opacity:1;stroke:#000000;stroke-opacity:1"
               id="g625">
              <path
                 inkscape:connector-curvature="0"
                 sodipodi:nodetypes="csc"
                 id="path609"
                 d="m 229.893,385.644 c 17.367,20.948 41.608,24.585 69.173,25.315 29.519,1.077 59.166,-10.645 66.819,-25.314"
                 style="fill:none;fill-opacity:1;fill-rule:evenodd;stroke:#000000;stroke-width:4.54532671;stroke-linecap:butt;stroke-linejoin:miter;stroke-dasharray:none;stroke-opacity:1" />
              <g
                 style="fill:none;fill-opacity:1;stroke:#000000;stroke-opacity:1"
                 id="g615">
                <path
                   inkscape:connector-curvature="0"
                   id="path589"
                   d="m 241.444,354.256 -0.416,41.212"
                   style="fill:none;fill-opacity:1;fill-rule:evenodd;stroke:#000000;stroke-width:3.63626146;stroke-linecap:butt;stroke-linejoin:miter;stroke-dasharray:none;stroke-opacity:1" />
                <path
                   inkscape:connector-curvature="0"
                   id="path592"
                   d="m 254.973,358.627 -0.208,44.126"
                   style="fill:none;fill-opacity:1;fill-rule:evenodd;stroke:#000000;stroke-width:3.63626146;stroke-linecap:butt;stroke-linejoin:miter;stroke-dasharray:none;stroke-opacity:1" />
                <path
                   inkscape:connector-curvature="0"
                   id="path593"
                   d="m 269.959,360.5 -0.416,46.208"
                   style="fill:none;fill-opacity:1;fill-rule:evenodd;stroke:#000000;stroke-width:3.63626146;stroke-linecap:butt;stroke-linejoin:miter;stroke-dasharray:none;stroke-opacity:1" />
                <path
                   inkscape:connector-curvature="0"
                   id="path594"
                   d="m 283.489,361.541 -0.209,46.832"
                   style="fill:none;fill-opacity:1;fill-rule:evenodd;stroke:#000000;stroke-width:3.63626146;stroke-linecap:butt;stroke-linejoin:miter;stroke-dasharray:none;stroke-opacity:1" />
                <path
                   inkscape:connector-curvature="0"
                   id="path595"
                   d="m 298.683,361.957 v 46.832"
                   style="fill:none;fill-opacity:1;fill-rule:evenodd;stroke:#000000;stroke-width:3.63626146;stroke-linecap:butt;stroke-linejoin:miter;stroke-dasharray:none;stroke-opacity:1" />
                <path
                   inkscape:connector-curvature="0"
                   id="path598"
                   d="m 313.253,361.749 0.208,46.832"
                   style="fill:none;fill-opacity:1;fill-rule:evenodd;stroke:#000000;stroke-width:3.63626146;stroke-linecap:butt;stroke-linejoin:miter;stroke-dasharray:none;stroke-opacity:1" />
                <path
                   inkscape:connector-curvature="0"
                   transform="translate(-0.41626,-3.051758e-5)"
                   id="path599"
                   d="m 326.782,360.5 0.416,46"
                   style="fill:none;fill-opacity:1;fill-rule:evenodd;stroke:#000000;stroke-width:3.63626146;stroke-linecap:butt;stroke-linejoin:miter;stroke-dasharray:none;stroke-opacity:1" />
                <path
                   inkscape:connector-curvature="0"
                   id="path604"
                   d="m 341.56,358.003 0.208,44.126"
                   style="fill:none;fill-opacity:1;fill-rule:evenodd;stroke:#000000;stroke-width:3.63626146;stroke-linecap:butt;stroke-linejoin:miter;stroke-dasharray:none;stroke-opacity:1" />
                <path
                   inkscape:connector-curvature="0"
                   id="path606"
                   d="m 355.297,352.591 0.417,41.628"
                   style="fill:none;fill-opacity:1;fill-rule:evenodd;stroke:#000000;stroke-width:3.63626146;stroke-linecap:butt;stroke-linejoin:miter;stroke-dasharray:none;stroke-opacity:1" />
              </g>
            </g>
          </g>
        </g>
        <g
           style="font-size:12px;fill:none;fill-opacity:1;stroke:#000000;stroke-opacity:1"
           id="g675">
          <path
             inkscape:connector-curvature="0"
             sodipodi:nodetypes="csssssc"
             id="path573"
             d="m 171.498,235.561 c -19.136,-18.603 -32.51,-50.888 -34.366,-85.752 -2.015,-38.42 18.218,-76.5701 48.537,-98.3192 33.969,-23.9094 90.766,-30.522 126.082,-28.7375 23.921,0.0166 77.206,12.4202 96.015,26.4277 32.994,23.9901 50.688,58.04 51.914,96.85 1.813,38.983 -14.606,68.675 -34.711,87.206"
             style="fill:none;fill-opacity:1;fill-rule:evenodd;stroke:#000000;stroke-width:9.09065342;stroke-linecap:round;stroke-linejoin:round;stroke-dasharray:none;stroke-opacity:1" />
          <path
             inkscape:connector-curvature="0"
             sodipodi:nodetypes="cscccscc"
             id="path580"
             d="m 172.662,126.267 c -7.752,6.782 -6.774,16.977 -5.378,32.192 1.102,11.56 8.478,22.939 8.866,33.5 2.712,22.285 -3.876,44.57 -6.977,62.786 -2.132,20.928 3.877,38.95 11.628,45.926 7.751,6.88 17.756,9.729 28.268,12.936 9.551,2.498 14.504,6.842 21.728,12.228 8.606,9.137 10.659,16.694 10.465,25.996"
             style="fill:none;fill-opacity:1;fill-rule:evenodd;stroke:#000000;stroke-width:9.09065342;stroke-linecap:butt;stroke-linejoin:round;stroke-dasharray:none;stroke-opacity:1" />
          <path
             inkscape:connector-curvature="0"
             transform="matrix(-1,0,0,1,597.7228,-0.58139)"
             sodipodi:nodetypes="cscccscc"
             id="path581"
             d="m 172.662,126.267 c -7.752,6.782 -6.774,16.977 -5.378,32.192 1.102,11.56 8.478,22.939 8.866,33.5 2.712,22.285 -3.876,44.57 -6.977,62.786 -2.132,20.928 3.877,38.95 11.628,45.926 7.751,6.88 21.937,10.575 28.268,12.936 7.377,2.581 14.92,7.258 21.728,12.644 8.19,7.888 10.659,16.278 10.465,25.58"
             style="fill:none;fill-opacity:1;fill-rule:evenodd;stroke:#000000;stroke-width:9.09065342;stroke-linecap:butt;stroke-linejoin:round;stroke-dasharray:none;stroke-opacity:1" />
          <path
             inkscape:connector-curvature="0"
             sodipodi:nodetypes="ccccc"
             id="path613"
             d="m 194.821,310.959 c 6.938,16.79 14.292,33.164 14.986,50.37 -3.191,13.876 -2.22,30.25 1.249,43.294 4.441,17.9 21.786,39.13 39.132,46.207 17.761,6.452 28.862,8.118 48.704,8.118"
             style="fill:none;fill-opacity:1;fill-rule:evenodd;stroke:#000000;stroke-width:9.09065342;stroke-linecap:butt;stroke-linejoin:miter;stroke-dasharray:none;stroke-opacity:1" />
          <path
             inkscape:connector-curvature="0"
             transform="matrix(-1,0,0,1,596.7438,-3.051758e-5)"
             sodipodi:nodetypes="ccccc"
             id="path614"
             d="m 194.821,310.959 c 6.938,16.79 14.292,33.164 14.986,50.37 -3.191,13.876 -2.22,30.25 1.249,43.294 4.441,17.9 21.994,38.506 39.34,45.583 17.345,7.077 28.445,8.742 48.288,8.742"
             style="fill:none;fill-opacity:1;fill-rule:evenodd;stroke:#000000;stroke-width:9.09065342;stroke-linecap:butt;stroke-linejoin:miter;stroke-dasharray:none;stroke-opacity:1" />
        </g>
      </g>
    </g>
    <text
       xml:space="preserve"
       style="font-style:normal;font-weight:normal;font-size:10.59227657px;line-height:94.69999671%;font-family:sans-serif;text-align:center;letter-spacing:0px;word-spacing:0px;text-anchor:middle;opacity:0.98000004;fill:#000000;fill-opacity:1;stroke:none;stroke-width:1px;stroke-linecap:butt;stroke-linejoin:miter;stroke-opacity:1"
       x="9.3085051"
       y="284.32245"
       id="text836-3"
       transform="scale(1.000845,0.99915571)"><tspan
         sodipodi:role="line"
         x="23.269403"
         y="284.32245"
         id="tspan834-6"
         style="font-size:5.64444447px;text-align:start;text-anchor:start;stroke-width:1px"><tspan
           x="23.269403"
           y="284.32245"
           style="font-size:5.64444447px;text-align:start;text-anchor:start;stroke-width:1px"
           id="tspan830-7"
           dx="0 0 0 0 0 0 0 0 0 0 0">{{ txt2 }}</tspan></tspan></text>
    <text
       xml:space="preserve"
       style="font-style:normal;font-weight:normal;font-size:10.59227657px;line-height:94.69999671%;font-family:sans-serif;text-align:center;letter-spacing:0px;word-spacing:0px;text-anchor:middle;opacity:0.98000004;fill:#000000;fill-opacity:1;stroke:none;stroke-width:1px;stroke-linecap:butt;stroke-linejoin:miter;stroke-opacity:1"
       x="9.3085051"
       y="291.75528"
       id="text836-5"
       transform="scale(1.000845,0.99915571)"><tspan
         sodipodi:role="line"
         x="23.269403"
         y="291.75528"
         id="tspan834-3"
         style="font-size:5.64444447px;text-align:start;text-anchor:start;stroke-width:1px"><tspan
           x="23.269403"
           y="291.75528"
           style="font-size:5.64444447px;text-align:start;text-anchor:start;stroke-width:1px"
           id="tspan830-5"
           dx="0 0 0 0 0 0 0 0 0 0 0">{{ txt3 }}</tspan></tspan></text>
    <flowRoot
       xml:space="preserve"
       id="flowRoot960"
       style="fill:black;stroke:none;stroke-opacity:1;stroke-width:1px;stroke-linejoin:miter;stroke-linecap:butt;fill-opacity:1;font-family:sans-serif;font-style:normal;font-weight:normal;font-size:40px;line-height:125%;letter-spacing:0px;word-spacing:0px"><flowRegion
         id="flowRegion962"><rect
           id="rect964"
           width="166.8772"
           height="119.14749"
           x="127.27922"
           y="-21.23333" /></flowRegion><flowPara
         id="flowPara966"></flowPara></flowRoot>  </g>
</svg>
