<?xml version="1.0" encoding="UTF-8" standalone="no"?>
<!-- Created with Inkscape (http://www.inkscape.org/) -->

<svg
   xmlns:dc="http://purl.org/dc/elements/1.1/"
   xmlns:cc="http://creativecommons.org/ns#"
   xmlns:rdf="http://www.w3.org/1999/02/22-rdf-syntax-ns#"
   xmlns:svg="http://www.w3.org/2000/svg"
   xmlns="http://www.w3.org/2000/svg"
   xmlns:sodipodi="http://sodipodi.sourceforge.net/DTD/sodipodi-0.dtd"
   xmlns:inkscape="http://www.inkscape.org/namespaces/inkscape"
   width="57mm"
   height="26mm"
   viewBox="0 0 57.000001 26"
   version="1.1"
   id="svg8"
   inkscape:version="0.92.3 (2405546, 2018-03-11)"
   sodipodi:docname="1line.svg"
   inkscape:export-filename="/home/cyril/technique/linux/thermalprinter/img.png"
   inkscape:export-xdpi="171.11578"
   inkscape:export-ydpi="171.11578">
  <defs
     id="defs2">
    <inkscape:perspective
       sodipodi:type="inkscape:persp3d"
       inkscape:vp_x="0 : 13 : 1"
       inkscape:vp_y="0 : 1000 : 0"
       inkscape:vp_z="57.000001 : 13 : 1"
       inkscape:persp3d-origin="28.5 : 8.6666667 : 1"
       id="perspective849" />
  </defs>
  <sodipodi:namedview
     id="base"
     pagecolor="#ffffff"
     bordercolor="#666666"
     borderopacity="1.0"
     inkscape:pageopacity="0.0"
     inkscape:pageshadow="2"
     inkscape:zoom="2.8284271"
     inkscape:cx="28.6706"
     inkscape:cy="-1.878832"
     inkscape:document-units="mm"
     inkscape:current-layer="layer1"
     showgrid="false"
     inkscape:window-width="1916"
     inkscape:window-height="990"
     inkscape:window-x="2"
     inkscape:window-y="36"
     inkscape:window-maximized="1"
     units="mm"
     showguides="true"
     inkscape:guide-bbox="true"
     guidetolerance="4"
     objecttolerance="5">
    <sodipodi:guide
       position="49.145055,3.5718697"
       orientation="0,1"
       id="guide4577"
       inkscape:locked="false" />
  </sodipodi:namedview>
  <metadata
     id="metadata5">
    <rdf:RDF>
      <cc:Work
         rdf:about="">
        <dc:format>image/svg+xml</dc:format>
        <dc:type
           rdf:resource="http://purl.org/dc/dcmitype/StillImage" />
        <dc:title />
      </cc:Work>
    </rdf:RDF>
  </metadata>
  <g
     inkscape:label="Calque 1"
     inkscape:groupmode="layer"
     id="layer1"
     transform="translate(0,-271)"
     style="opacity:0.98">
    <flowRoot
       xml:space="preserve"
       id="flowRoot4555"
       style="font-style:normal;font-weight:normal;font-size:40px;line-height:125%;font-family:STIXIntegralsD;letter-spacing:0px;word-spacing:0px;fill:#000000;fill-opacity:1;stroke:none;stroke-width:1px;stroke-linecap:butt;stroke-linejoin:miter;stroke-opacity:1;-inkscape-font-specification:STIXIntegralsD;font-stretch:normal;font-variant:normal"
       transform="matrix(0.26458333,0,0,0.26458333,0,275)"><flowRegion
         id="flowRegion4557"
         style="-inkscape-font-specification:STIXIntegralsD;font-family:STIXIntegralsD;font-weight:normal;font-style:normal;font-stretch:normal;font-variant:normal"><rect
           id="rect4559"
           width="124.45079"
           height="97.580734"
           x="239.7092"
           y="2.5394316"
           style="-inkscape-font-specification:STIXIntegralsD;font-family:STIXIntegralsD;font-weight:normal;font-style:normal;font-stretch:normal;font-variant:normal" /></flowRegion><flowPara
         id="flowPara4561" /></flowRoot>    <path
       style="fill:none;fill-rule:evenodd;stroke:#000000;stroke-width:0.16500001;stroke-linecap:butt;stroke-linejoin:miter;stroke-miterlimit:4;stroke-dasharray:none;stroke-opacity:1"
       d="m 28.160902,271.05314 0.678196,-0.006"
       id="path4691"
       inkscape:connector-curvature="0"
       sodipodi:nodetypes="cc" />
    <flowRoot
       xml:space="preserve"
       id="flowRoot836"
       style="font-style:normal;font-weight:normal;font-size:40px;line-height:94.69999671%;font-family:sans-serif;text-align:center;letter-spacing:0px;word-spacing:0px;text-anchor:middle;fill:#000000;fill-opacity:1;stroke:none;stroke-width:1px;stroke-linecap:butt;stroke-linejoin:miter;stroke-opacity:1"
       transform="matrix(0.26503067,0,0,0.26458333,-0.19201006,278.67615)"><flowRegion
         id="flowRegion838"
         style="line-height:94.69999671%;text-align:center;text-anchor:middle"><rect
           id="rect840"
           width="211"
           height="80"
           x="2.5"
           y="2.5177166"
           style="line-height:94.69999671%;text-align:center;text-anchor:middle" /></flowRegion><flowPara
         id="flowPara856"
         style="font-size:32px">{{ txt1 }}</flowPara><flowPara
         id="flowPara854" /></flowRoot>    <text
       xml:space="preserve"
       style="font-style:normal;font-weight:normal;font-size:10.58333302px;line-height:125%;font-family:sans-serif;letter-spacing:0px;word-spacing:0px;fill:#000000;fill-opacity:1;stroke:none;stroke-width:0.26458332px;stroke-linecap:butt;stroke-linejoin:miter;stroke-opacity:1"
       x="28.156845"
       y="290.35834"
       id="text882"><tspan
         sodipodi:role="line"
         id="tspan880"
         x="28.156845"
         y="299.72211"
         style="stroke-width:0.26458332px" /></text>
    <path
       sodipodi:type="star"
       style="opacity:1;fill:#1f1f1f;fill-opacity:1;stroke:#ffffff;stroke-width:0.264375;stroke-miterlimit:4;stroke-dasharray:none;stroke-opacity:1"
       id="path828"
       sodipodi:sides="5"
       sodipodi:cx="6.5481036"
       sodipodi:cy="278.01051"
       sodipodi:r1="3.9076462"
       sodipodi:r2="1.9538229"
       sodipodi:arg1="0.83620187"
       sodipodi:arg2="1.4645204"
       inkscape:flatsided="false"
       inkscape:rounded="0"
       inkscape:randomized="0"
       d="m 9.1673453,280.91037 -2.4119878,-0.95707 -2.1558081,1.44436 0.1648873,-2.58969 -2.0398473,-1.60397 2.5138938,-0.64344 0.8951132,-2.43566 1.3887845,2.19202 2.5930581,0.0986 -1.6555782,1.99819 z"
       inkscape:transform-center-x="0.12808987"
       inkscape:transform-center-y="-0.24922108" />
    <path
       sodipodi:type="spiral"
       style="fill:none;fill-rule:evenodd;stroke:#000000;stroke-width:0.26458332px;stroke-linecap:butt;stroke-linejoin:miter;stroke-opacity:1"
       id="path865"
       sodipodi:cx="50.046219"
       sodipodi:cy="276.04605"
       sodipodi:expansion="1"
       sodipodi:revolution="3"
       sodipodi:radius="2.7320712"
       sodipodi:argument="-18.185511"
       sodipodi:t0="0"
       d="m 50.046219,276.04605 c 0.107874,0.0844 -0.06058,0.18706 -0.140316,0.17929 -0.216083,-0.0211 -0.282768,-0.2864 -0.218271,-0.45992 0.115369,-0.31038 0.503249,-0.3924 0.779536,-0.25725 0.405462,0.19834 0.504831,0.72287 0.296225,1.09915 -0.27804,0.50151 -0.943458,0.61843 -1.418756,0.3352 -0.598114,-0.35642 -0.732636,-1.1645 -0.374179,-1.73837 0.43414,-0.69502 1.385798,-0.84718 2.057975,-0.41315 0.792138,0.51148 0.961948,1.60725 0.452133,2.37758 -0.588601,0.88938 -1.828818,1.07686 -2.697194,0.49111 -0.986705,-0.66556 -1.191868,-2.05045 -0.530087,-3.0168 0.742417,-1.0841 2.272148,-1.30695 3.336414,-0.56907 1.181536,0.8192 1.42209,2.49389 0.608041,3.65603" />
    <path
       style="opacity:1;fill:#1f1f1f;fill-opacity:1;stroke:#ffffff;stroke-width:0.264375;stroke-miterlimit:4;stroke-dasharray:none;stroke-opacity:1"
       id="path867"
       d="m 12.812979,275.043 c 0.542929,-0.12735 1.100705,-0.16597 1.655645,-0.2006 0.371778,-0.0183 0.745651,-0.0494 1.115998,0.006 0.124591,0.0186 0.285808,0.0598 0.409844,0.0896 0.344848,0.10903 0.676515,0.25662 1.0115,0.39273 0.360852,0.14708 0.724143,0.28939 1.089347,0.42545 0.434641,0.17392 0.888302,0.26338 1.35148,0.31441 0.529579,0.0454 1.061615,0.046 1.592724,0.0463 0.541717,0.0141 1.077678,-0.0815 1.611765,-0.15883 0.58776,-0.0769 1.15782,-0.23682 1.722217,-0.41264 0.536665,-0.15816 1.068973,-0.33091 1.580785,-0.55782 0.311184,-0.14799 0.601971,-0.33181 0.934984,-0.4278 0.309957,-0.0666 0.608721,0.0661 0.890156,0.18194 0.414597,0.18403 0.790046,0.43511 1.154393,0.70213 0.338378,0.27037 0.696452,0.51128 1.078304,0.71519 0.480692,0.21671 1.002152,0.33454 1.520531,0.42038 0.63364,0.084 1.272641,0.10994 1.909501,0.0575 0.515498,-0.0508 0.999366,-0.22778 1.469506,-0.43491 0.380294,-0.20365 0.745287,-0.43404 1.129149,-0.63108 0.397957,-0.15197 0.823648,-0.21858 1.245534,-0.26371 0.357714,-0.0312 0.716918,-0.0396 1.075812,-0.0435 0.330036,-0.0208 0.648872,0.0211 0.969174,0.097 0.501325,0.15664 0.971645,0.39319 1.45401,0.59792 0.269293,0.09 0.530836,0.22367 0.813763,0.26244 0,0 -1.132247,0.78945 -1.132247,0.78945 v 0 c -0.280311,-0.0708 -0.546079,-0.19 -0.813531,-0.29829 -0.473392,-0.21035 -0.943131,-0.43925 -1.446321,-0.57054 -0.318476,-0.0616 -0.636558,-0.0806 -0.960858,-0.0658 -0.352433,0.002 -0.705408,0.009 -1.056047,0.0476 -0.415034,0.0533 -0.836602,0.12357 -1.217266,0.30523 -0.379124,0.20371 -0.743228,0.43528 -1.132483,0.61974 -0.475803,0.19668 -0.966412,0.35401 -1.484029,0.38905 -0.645248,0.0374 -1.291881,0.0111 -1.932154,-0.0811 -0.530225,-0.0937 -1.065329,-0.21501 -1.551694,-0.4523 -0.386445,-0.20886 -0.751309,-0.45072 -1.09178,-0.72905 -0.357036,-0.26109 -0.728215,-0.50351 -1.140983,-0.66874 -0.273905,-0.10227 -0.553346,-0.20249 -0.843001,-0.0989 -0.316018,0.11581 -0.602213,0.29409 -0.911788,0.4251 -0.516537,0.2124 -1.048467,0.38138 -1.583289,0.54144 -0.568686,0.17154 -1.144446,0.31883 -1.734603,0.39586 -0.539597,0.0779 -1.081272,0.16545 -1.628537,0.14622 -0.534096,-0.005 -1.069386,-0.006 -1.601407,-0.059 -0.472501,-0.0595 -0.934381,-0.16224 -1.37934,-0.33604 -0.36404,-0.14163 -0.730507,-0.27702 -1.091124,-0.42724 -0.330811,-0.13131 -0.656317,-0.28025 -0.9997,-0.37606 -0.489376,-0.11479 -0.983255,-0.12159 -1.48357,-0.0758 -0.562734,0.0396 -1.127134,0.0908 -1.67339,0.2399 0,0 1.10302,-0.83885 1.10302,-0.83885 z"
       inkscape:connector-curvature="0" />
    <path
       style="opacity:1;fill:#1f1f1f;fill-opacity:1;stroke:#ffffff;stroke-width:0.264375;stroke-miterlimit:4;stroke-dasharray:none;stroke-opacity:1"
       id="path869"
       d="m 6.456587,290.68198 c 0.6253816,-0.0376 1.252083,-0.0432 1.8783668,-0.0512 0.8480679,-0.0354 1.6902442,0.0711 2.5313662,0.16042 0.566746,0.0549 1.122238,0.1776 1.678362,0.29407 0.382264,0.0787 0.742046,0.23051 1.096376,0.38966 0.290098,0.14354 0.59908,0.2132 0.918867,0.24296 0.3678,0.0467 0.724055,0.1524 1.08887,0.2153 0.515208,0.0717 1.036616,0.0764 1.555822,0.0835 0.627001,0.005 1.254028,0.006 1.881046,0.005 0.388874,-0.0228 0.787135,-0.0137 1.168462,-0.10702 0.184866,-0.0452 0.257694,-0.0853 0.428241,-0.15969 0.413249,-0.24802 0.878972,-0.31296 1.349953,-0.35335 0.795359,-0.0403 1.592163,-0.0333 2.388276,-0.0343 0.795238,-0.002 1.583987,-0.10931 2.373047,-0.19438 0.621763,-0.0651 1.233342,-0.19824 1.848035,-0.30871 0.568659,-0.11115 1.137116,-0.22081 1.713238,-0.28469 0.563417,-0.0534 1.129805,-0.0557 1.695207,-0.0588 0.548746,-0.0166 1.091221,-0.10721 1.637924,-0.15153 0.450609,-0.0308 0.902301,-0.0357 1.353762,-0.0385 0.423021,-0.0265 0.837806,0.0174 1.255461,0.0772 0.545769,0.0711 1.094084,0.11918 1.641057,0.17939 0.58171,0.0933 1.166466,0.15715 1.754513,0.19046 0.486362,0.0226 0.973373,0.0235 1.460151,0.025 0.476292,0.0176 0.946282,-0.008 1.41687,-0.0795 0.441722,-0.0715 0.87208,-0.18148 1.29264,-0.33327 0.245655,-0.0832 0.468019,-0.22127 0.711528,-0.30958 0.09755,-0.0354 0.1982,-0.0616 0.297175,-0.0928 0.350692,-0.14207 0.725307,-0.17431 1.098838,-0.19702 0.567127,-0.009 1.119275,0.12892 1.66234,0.27648 0.515578,0.12322 1.031801,0.23413 1.536512,0.39808 0.441963,0.15728 0.870387,0.34694 1.319771,0.48272 0.274579,0.0822 0.557887,0.11797 0.843291,0.12843 0.196085,0.008 0.392705,-0.0141 0.586843,0.0169 0.23313,0.0371 0.468352,0.0565 0.703987,0.0675 0.198369,0.0165 0.388993,0.008 0.576263,-0.0617 -0.371076,0.20729 -0.742151,0.41458 -1.113224,0.62187 0,0 1.292802,-0.50162 1.292802,-0.50162 v 0 c -0.426162,0.2418 -0.852324,0.4836 -1.278485,0.7254 -0.199703,0.0404 -0.399516,0.0416 -0.602396,0.0235 -0.236836,-0.0164 -0.472331,-0.0444 -0.708075,-0.072 -0.194215,-0.008 -0.388803,10e-4 -0.58289,-0.0124 -0.288354,-0.023 -0.572606,-0.0757 -0.847749,-0.16703 -0.444431,-0.14722 -0.874168,-0.33255 -1.316598,-0.48549 -0.501957,-0.15897 -1.015418,-0.2672 -1.525061,-0.39764 -0.537748,-0.14012 -1.085742,-0.26804 -1.645894,-0.23229 -0.372348,0.0332 -0.738825,0.0909 -1.088453,0.22997 -0.341152,0.11276 -0.660996,0.27409 -0.998043,0.39782 -0.42667,0.14213 -0.863127,0.24575 -1.308275,0.31194 -0.473477,0.0617 -0.947205,0.0743 -1.424514,0.0609 -0.487682,-7.2e-4 -0.975743,-0.001 -1.462614,-0.0334 -0.587015,-0.041 -1.169746,-0.11363 -1.751867,-0.19921 -0.552066,-0.0549 -1.104844,-0.10429 -1.655209,-0.17484 -0.413991,-0.055 -0.827802,-0.0746 -1.245563,-0.06 -0.448617,0.004 -0.897663,0.01 -1.345102,0.0453 -0.545129,0.0482 -1.088292,0.1264 -1.636078,0.13723 -0.563351,0.005 -1.127847,0.012 -1.688581,0.0722 -0.573606,0.0707 -1.140391,0.18169 -1.707732,0.2909 -0.613521,0.10989 -1.225516,0.23409 -1.846438,0.29534 -0.787374,0.0816 -1.575118,0.17372 -2.368073,0.17346 -0.800231,0.001 -1.602168,-0.003 -2.400416,0.0602 -0.477136,0.0581 -0.910446,0.15779 -1.336351,0.38997 -0.53338,0.19141 -1.050643,0.20862 -1.613315,0.21511 -0.629093,4e-5 -1.258215,0.004 -1.887284,-0.003 -0.527473,-0.009 -1.057707,-0.0131 -1.580281,-0.0932 -0.363633,-0.0673 -0.721533,-0.16848 -1.090822,-0.20301 -0.327142,-0.0429 -0.639611,-0.13375 -0.935831,-0.28203 -0.349951,-0.15238 -0.706106,-0.29197 -1.082019,-0.36661 -0.542982,-0.12737 -1.088626,-0.24608 -1.6449178,-0.29952 -0.8359976,-0.0951 -1.6731929,-0.19489 -2.516792,-0.15028 -0.6379655,0.0118 -1.2780002,0.02 -1.9125856,0.0924 0,0 1.1122654,-0.82707 1.1122654,-0.82707 z"
       inkscape:connector-curvature="0" />
  </g>
</svg>
